<svg width="30" height="19" viewBox="0 0 30 19" fill="none" xmlns="http://www.w3.org/2000/svg">
<path d="M15.4537 12.7141C15.4537 10.5451 14.355 8.94188 12.085 8.34095C13.7413 7.60036 14.605 6.47832 14.605 4.73306C14.605 1.29182 11.865 0.452637 8.70375 0.452637H0V17.7304H8.9475C12.3025 17.7304 15.4537 16.2246 15.4537 12.7141ZM4.0575 3.4021H7.865C9.32875 3.4021 10.6463 3.78707 10.6463 5.37623C10.6463 6.84333 9.62125 7.4337 8.17125 7.4337H4.0575V3.4021ZM4.05625 14.7962V10.0381H8.47875C10.265 10.0381 11.395 10.7353 11.395 12.5052C11.395 14.2504 10.0463 14.7962 8.395 14.7962H4.05625Z" fill="#04D361"/>
<path d="M23.4945 18.058C26.687 18.058 28.7545 16.7118 29.7495 13.8503H26.5095C26.1608 14.9184 24.7233 15.4829 23.6083 15.4829C21.457 15.4829 20.327 14.3034 20.327 12.2987H29.9683C30.2733 8.2871 27.8933 4.86816 23.4933 4.86816C19.4195 4.86816 16.6545 7.73429 16.6545 11.4889C16.6545 15.3855 19.2745 18.058 23.4945 18.058ZM23.3795 7.46435C25.2233 7.46435 26.1508 8.47841 26.3058 10.1368H20.332C20.4533 8.49249 21.6195 7.46435 23.3795 7.46435Z" fill="#04D361"/>
<path d="M19.5845 1.36011H27.0695V3.06195H19.5845V1.36011Z" fill="#04D361"/>
</svg>
