<svg width="50" height="49" viewBox="0 0 50 49" fill="none" xmlns="http://www.w3.org/2000/svg">
<rect width="50" height="49" rx="4" fill="#E5F9ED"/>
<path d="M37.1893 16.6874V32.1693C37.1877 33.6037 36.0253 34.7661 34.5912 34.7673H16.3498C14.9157 34.7661 13.7533 33.6037 13.7518 32.1693V16.6874C13.7533 15.2533 14.9157 14.0909 16.3498 14.0894H34.5912C36.0253 14.0909 37.1877 15.2533 37.1893 16.6874V16.6874ZM36.4154 32.1693V20.2854H14.5256V32.1693C14.5267 33.1764 15.3427 33.9926 16.3498 33.9934H34.5912C35.5983 33.9926 36.4144 33.1764 36.4154 32.1693ZM36.4154 19.5115V16.6874C36.4144 15.6803 35.5983 14.8644 34.5912 14.8632H16.3498C15.3427 14.8644 14.5267 15.6803 14.5256 16.6874V19.5115H36.4154Z" fill="#04D361"/>
<path d="M30.6963 26.3184L28.1922 24.1864C28.0292 24.0537 27.7901 24.0758 27.6536 24.2358C27.5173 24.3959 27.5339 24.6357 27.6911 24.7756L29.8485 26.6129L27.6911 28.4505C27.5821 28.539 27.5296 28.6794 27.554 28.8176C27.5782 28.956 27.6754 29.0701 27.8079 29.1161C27.9406 29.1622 28.0876 29.133 28.1922 29.0397L30.6963 26.9076C30.7827 26.834 30.8326 26.7266 30.8326 26.6129C30.8326 26.4996 30.7827 26.3918 30.6963 26.3184V26.3184Z" fill="#04D361"/>
<path d="M26.2238 22.5564C26.0148 22.5123 25.8098 22.6462 25.7657 22.8552L24.2052 30.2648C24.1611 30.4736 24.2948 30.6787 24.5038 30.723C24.5301 30.7284 24.5569 30.7312 24.584 30.7312C24.7668 30.731 24.9246 30.603 24.9625 30.4239L26.5228 23.0146C26.5665 22.8056 26.4328 22.6004 26.2238 22.5564V22.5564Z" fill="#04D361"/>
<path d="M24.1218 18.4454H24.1257C24.8003 18.4451 25.3477 17.8995 25.35 17.2246V17.2208C25.3493 16.5463 24.8036 15.9994 24.129 15.9965H24.1257C23.4495 15.9954 22.9003 16.5428 22.8993 17.2189C22.8983 17.8952 23.4457 18.4442 24.1218 18.4454ZM24.1257 16.7703H24.1268C24.3755 16.7707 24.5771 16.9728 24.5766 17.2215C24.5764 17.4703 24.3745 17.6717 24.1257 17.6715H24.124C23.8753 17.671 23.6739 17.4689 23.6742 17.2202C23.6747 16.9712 23.8768 16.77 24.1257 16.7703Z" fill="#04D361"/>
<path d="M20.1086 26.6129C20.1086 26.7262 20.1584 26.834 20.2448 26.9076L22.7488 29.0397C22.9119 29.1722 23.151 29.1503 23.2874 28.99C23.4237 28.83 23.4071 28.5904 23.2499 28.4505L21.0926 26.6129L23.2499 24.7756C23.4071 24.6357 23.4237 24.3959 23.2874 24.2358C23.151 24.0758 22.9119 24.0537 22.7488 24.1864L20.2448 26.3184C20.1584 26.392 20.1086 26.4996 20.1086 26.6129V26.6129Z" fill="#04D361"/>
<path d="M19.1386 17.2055C19.1375 17.8814 19.6834 18.4307 20.3591 18.4336H20.3629C21.0373 18.4329 21.5846 17.8876 21.5873 17.2132V17.2094C21.5872 16.5345 21.0415 15.9873 20.3669 15.9849H20.3629C19.6882 15.985 19.141 16.5309 19.1386 17.2055ZM20.0456 16.8899C20.1296 16.8056 20.2437 16.7582 20.3629 16.7587H20.3645C20.6134 16.7591 20.8148 16.9612 20.8143 17.2099C20.8138 17.459 20.6117 17.6603 20.3629 17.6598H20.3617C20.1795 17.6594 20.0154 17.5492 19.9463 17.3806C19.877 17.212 19.9162 17.018 20.0456 16.8899Z" fill="#04D361"/>
<path d="M16.6046 15.9728C15.9283 15.9705 15.3781 16.5171 15.3762 17.1935C15.374 17.8698 15.9205 18.4198 16.5968 18.4221H16.6006C17.2772 18.4231 17.8264 17.8757 17.8274 17.1994C17.8285 16.523 17.281 15.9738 16.6046 15.9728ZM16.6006 17.6482H16.5992C16.3501 17.6477 16.1487 17.4456 16.1492 17.1967C16.1496 16.9477 16.3517 16.7461 16.6006 16.7467H16.6023C16.8514 16.747 17.0528 16.9491 17.0525 17.1982C17.052 17.4471 16.8497 17.6485 16.6006 17.6482Z" fill="#04D361"/>
</svg>
