<svg width="50" height="49" viewBox="0 0 50 49" fill="none" xmlns="http://www.w3.org/2000/svg">
<rect width="50" height="49" rx="4" fill="#E5F9ED"/>
<path d="M29.0205 37C28.8652 37 28.7197 36.9038 28.6636 36.7492C28.6462 36.7 27.0174 31.9379 32.6288 29.1167C30.8826 27.372 24.1212 20.1144 24.1212 12.3788C24.1212 12.1697 24.2909 12 24.5 12C24.7091 12 24.8788 12.1697 24.8788 12.3788C24.8788 20.7402 33.4553 28.8682 33.5424 28.9485C33.6349 29.0348 33.678 29.1621 33.6568 29.2871C33.6356 29.4121 33.5538 29.5189 33.4379 29.5705C27.8644 32.0689 29.3121 36.3136 29.3765 36.4932C29.447 36.6902 29.3447 36.9068 29.1477 36.978C29.1061 36.9924 29.0629 37 29.0205 37Z" fill="#04D361"/>
<path d="M19.9803 37C19.9379 37 19.8955 36.9924 19.853 36.978C19.6568 36.9076 19.5538 36.6917 19.6227 36.4939C19.6864 36.3144 21.1121 32.0591 15.5621 29.5705C15.4462 29.5189 15.3644 29.4121 15.3432 29.2871C15.3227 29.1621 15.3652 29.0348 15.4576 28.9485C15.5447 28.8682 24.1212 20.7402 24.1212 12.3788C24.1212 12.1697 24.2909 12 24.5 12C24.7091 12 24.8788 12.1697 24.8788 12.3788C24.8788 20.1144 18.1174 27.372 16.3712 29.1167C21.9826 31.9386 20.3538 36.7 20.3364 36.7492C20.2811 36.9038 20.1356 37 19.9803 37Z" fill="#04D361"/>
<path d="M24.5 26.7273C24.2909 26.7273 24.1212 26.5576 24.1212 26.3485V12.3788C24.1212 12.1697 24.2909 12 24.5 12C24.7091 12 24.8788 12.1697 24.8788 12.3788V26.3485C24.8788 26.5583 24.7091 26.7273 24.5 26.7273Z" fill="#079D4A"/>
<path d="M24.5 29.3985C23.5546 29.3985 22.7856 28.6296 22.7856 27.6841C22.7856 26.7387 23.5546 25.9697 24.5 25.9697C25.4455 25.9697 26.2144 26.7387 26.2144 27.6841C26.2144 28.6296 25.4455 29.3985 24.5 29.3985ZM24.5 26.7273C23.9727 26.7273 23.5432 27.1561 23.5432 27.6841C23.5432 28.2122 23.972 28.6409 24.5 28.6409C25.028 28.6409 25.4568 28.2122 25.4568 27.6841C25.4568 27.1561 25.0273 26.7273 24.5 26.7273Z" fill="#079D4A"/>
<path d="M32.4356 37H16.5644C16.3553 37 16.1856 36.8303 16.1856 36.6212C16.1856 36.4121 16.3553 36.2424 16.5644 36.2424H32.4349C32.6439 36.2424 32.8136 36.4121 32.8136 36.6212C32.8136 36.8303 32.6447 37 32.4356 37Z" fill="#04D361"/>
</svg>
