<svg width="50" height="49" viewBox="0 0 50 49" fill="none" xmlns="http://www.w3.org/2000/svg">
<rect width="50" height="49" rx="4" fill="#E5F9ED"/>
<g clip-path="url(#clip0)">
<path d="M34.57 29.3334C34.7023 28.6309 34.6989 27.9096 34.56 27.2084L36.4683 22.6029C36.4685 22.5999 36.4685 22.5968 36.4683 22.5938C36.7776 21.7471 37.2308 20.9603 37.8079 20.2679C37.9515 20.1163 38.0093 19.9026 37.9617 19.6992L37.1792 16.32C37.1699 16.2847 37.1559 16.2508 37.1375 16.2192C37.1342 16.2129 37.1329 16.2054 37.1296 16.1996C37.1263 16.1938 37.1117 16.1796 37.1033 16.1688C37.0863 16.1438 37.0666 16.1208 37.0446 16.1C37.0301 16.0898 37.0149 16.0806 36.9992 16.0725C36.9789 16.0576 36.9572 16.0445 36.9346 16.0334C36.9032 16.0215 36.8704 16.0135 36.8371 16.0096C36.8275 16.0096 36.8192 16.0034 36.8096 16.0025C36.7297 15.9972 36.65 16.015 36.58 16.0538C36.5738 16.0571 36.5663 16.0584 36.56 16.0621H36.5558L33.6138 17.8984C33.4356 18.0087 33.325 18.2014 33.3196 18.4109C33.2379 19.3105 33.0009 20.1892 32.6192 21.0079V21.0125L31.6654 23.3179C31.1973 23.0691 30.6962 22.8881 30.1771 22.7804C30.3736 21.4242 30.4458 20.0528 30.3929 18.6834C31.1686 17.7528 31.5408 16.5511 31.4271 15.345C31.1667 12.9167 28.9721 11.1629 28.8783 11.0892C28.7374 10.9782 28.5413 10.9699 28.3915 11.0685C28.2417 11.1671 28.1718 11.3505 28.2179 11.5238C28.4325 12.3296 28.2467 13.18 26.6617 14.9288C25.9495 15.6164 25.7238 16.6663 26.0904 17.5859C26.2306 17.9376 26.4314 18.2619 26.6838 18.5442C26.5829 19.1879 26.5038 19.7975 26.4492 20.3913C26.3552 21.3733 26.331 22.3608 26.3767 23.3463C26.005 23.5478 25.657 23.7903 25.3392 24.0692L23.3183 15.4275C23.3183 15.4188 23.31 15.4125 23.3075 15.4046C23.3007 15.3768 23.2909 15.3499 23.2783 15.3242L21.2142 11.5121C21.0076 11.1306 20.5712 10.9345 20.1487 11.0334C19.7263 11.1324 19.4223 11.5018 19.4067 11.9354L19.25 16.2667C19.2501 16.298 19.2536 16.3291 19.2604 16.3596C19.2604 16.3663 19.2604 16.3721 19.2604 16.3784L21.3221 25.1771C20.9969 25.1915 20.674 25.2396 20.3588 25.3209L18.0908 19.8438C17.909 19.4251 17.4266 19.2275 17.0033 19.3984L13.5371 20.8334C13.1129 21.0104 12.9113 21.4969 13.0858 21.9221L16.1617 29.3421C14.359 29.4368 12.9597 30.9501 13.0062 32.7546C13.0527 34.5592 14.5282 35.9984 16.3333 36H34.6667C35.8576 35.9828 36.9488 35.3315 37.5293 34.2915C38.1097 33.2515 38.0913 31.9809 37.4809 30.9582C36.8705 29.9355 35.7609 29.3161 34.57 29.3334ZM34.1454 18.5484L35.8921 17.4584L35.2738 18.9517C35.1856 19.1643 35.2865 19.4081 35.4992 19.4963C35.7118 19.5844 35.9556 19.4835 36.0438 19.2709L36.6621 17.7775L37.125 19.7829C36.6297 20.3872 36.2229 21.0588 35.9167 21.7775C35.4823 21.9789 34.9834 21.9893 34.541 21.8063C34.0985 21.6233 33.7528 21.2636 33.5875 20.8142C33.8801 20.0892 34.068 19.3263 34.1454 18.5484ZM33.1871 21.8196C33.4627 22.1566 33.8205 22.4171 34.2258 22.5759C34.5481 22.7145 34.8947 22.7875 35.2454 22.7909C35.3298 22.7906 35.4141 22.7854 35.4979 22.7754L34.1683 25.9838C33.7702 25.106 33.1543 24.3445 32.3792 23.7717L33.1871 21.8196ZM27.4788 18.8438L29.5721 18.9717C29.585 19.3609 29.5804 19.7634 29.5675 20.1721C28.8701 20.2219 28.1693 20.1881 27.48 20.0713C27.4275 20.0638 27.3763 20.0579 27.3242 20.0509C27.3658 19.6584 27.4167 19.2609 27.4779 18.8438H27.4788ZM27.28 15.4884C28.3863 14.2679 28.9596 13.3292 29.0929 12.4467C29.8881 13.2648 30.413 14.3073 30.5967 15.4334C30.6842 16.4136 30.3811 17.3888 29.7533 18.1467C28.9303 18.0967 28.1163 18.0467 27.3113 17.9967C26.9654 17.6733 26.7664 17.2228 26.7603 16.7494C26.7543 16.2759 26.9417 15.8205 27.2792 15.4884H27.28ZM27.2483 20.8813L27.3692 20.8971C27.9061 20.9801 28.448 21.0262 28.9913 21.035C29.1638 21.035 29.3454 21.0213 29.5275 21.0071C29.4896 21.5434 29.4275 22.1034 29.3488 22.6821C29.2458 22.6767 29.145 22.6667 29.0417 22.6667C28.4126 22.6678 27.7882 22.7753 27.195 22.9846C27.1758 22.2831 27.1933 21.581 27.2475 20.8813H27.2483ZM24.0254 25.7538L22.8333 20.6759C22.7776 20.4556 22.5556 20.3205 22.3344 20.3724C22.1131 20.4242 21.9742 20.6437 22.0221 20.8659L23.0933 25.4363C22.7988 25.3309 22.4945 25.2552 22.185 25.21L20.3563 17.4059C20.6124 17.5225 20.8906 17.583 21.1721 17.5834C21.1983 17.5834 21.2263 17.5796 21.2529 17.5784L21.5475 18.8363C21.5793 18.9835 21.688 19.1022 21.8319 19.1466C21.9758 19.191 22.1325 19.1543 22.2417 19.0506C22.351 18.9469 22.3957 18.7923 22.3588 18.6463L22.0638 17.3875C22.3465 17.2624 22.5958 17.0726 22.7917 16.8334L24.6508 24.7829C24.4094 25.0841 24.1998 25.4094 24.0254 25.7538ZM21.4796 16.7121C20.9467 16.8155 20.4026 16.5976 20.0883 16.155L20.1413 14.6875C20.2862 14.7146 20.4334 14.7286 20.5808 14.7292C20.7233 14.7298 20.8653 14.714 21.0042 14.6821C21.2853 14.6083 21.5482 14.4775 21.7767 14.2979L22.4783 15.5929C22.3947 16.1302 22.0038 16.5686 21.4796 16.7129V16.7121ZM20.3383 11.8446C20.3951 11.8315 20.4537 11.8577 20.4817 11.9088L21.375 13.5609C21.2139 13.7067 21.0214 13.8136 20.8125 13.8734C20.599 13.9126 20.3793 13.9021 20.1704 13.8429L20.2383 11.9654C20.2406 11.9072 20.2816 11.8577 20.3383 11.8446ZM17.3229 20.1667L17.6413 20.9359L16.0996 21.5742C15.9168 21.6509 15.8134 21.8458 15.8524 22.0402C15.8913 22.2346 16.0618 22.3746 16.26 22.375C16.3148 22.3749 16.369 22.3642 16.4196 22.3434L17.9613 21.7046L18.28 22.4746L17.5088 22.7942C17.3249 22.8703 17.2205 23.0657 17.2595 23.2607C17.2984 23.4558 17.4698 23.5962 17.6688 23.5959C17.7234 23.5957 17.7774 23.5849 17.8279 23.5642L18.5992 23.2446L18.9179 24.0146L17.375 24.6542C17.1912 24.7303 17.0868 24.9257 17.1257 25.1207C17.1647 25.3158 17.3361 25.4562 17.535 25.4559C17.5896 25.4557 17.6437 25.445 17.6942 25.4242L19.2358 24.7859L19.5729 25.5996C18.2152 26.2194 17.2195 27.4312 16.875 28.8834L13.855 21.6017L17.3229 20.1667ZM34.6667 35.1667H16.3333C14.9526 35.1667 13.8333 34.0474 13.8333 32.6667C13.8333 31.286 14.9526 30.1667 16.3333 30.1667C16.5748 30.1659 16.815 30.2007 17.0463 30.27C17.1712 30.3078 17.3066 30.2848 17.4121 30.2079C17.5176 30.1311 17.581 30.0093 17.5833 29.8788C17.613 28.3938 18.4714 27.0504 19.8065 26.3996C21.1416 25.7489 22.7287 25.9002 23.9167 26.7917C24.0217 26.8698 24.1572 26.8941 24.2828 26.8572C24.4084 26.8204 24.5093 26.7267 24.5554 26.6042C25.3695 24.4347 27.6193 23.1585 29.8991 23.5732C32.1789 23.9879 33.8354 25.9745 33.8333 28.2917C33.8342 28.7682 33.7632 29.2421 33.6229 29.6975C33.5791 29.8392 33.6139 29.9935 33.7143 30.1026C33.8147 30.2118 33.9656 30.2594 34.1104 30.2275C34.2931 30.1873 34.4796 30.1669 34.6667 30.1667C36.0474 30.1667 37.1667 31.286 37.1667 32.6667C37.1667 34.0474 36.0474 35.1667 34.6667 35.1667Z" fill="#31D575"/>
<path d="M29.1188 17.5416C29.2495 17.5421 29.373 17.4812 29.4521 17.377C29.9723 16.673 30.1733 15.783 30.0063 14.9237C29.9707 14.7768 29.8584 14.6606 29.7127 14.6202C29.5671 14.5797 29.411 14.6214 29.3048 14.7289C29.1986 14.8365 29.1589 14.9932 29.2013 15.1383C29.301 15.7489 29.1522 16.374 28.7879 16.8741C28.6932 17.0004 28.678 17.1693 28.7486 17.3105C28.8192 17.4516 28.9634 17.5408 29.1213 17.5408L29.1188 17.5416Z" fill="#04D361"/>
<path d="M28.5708 30.1668C28.261 30.1677 27.9554 30.239 27.6771 30.3751C26.9275 29.3495 25.528 29.049 24.4235 29.6766C23.319 30.3043 22.8608 31.6604 23.3583 32.8293C23.4238 32.9829 23.5747 33.0826 23.7417 33.0826C23.7978 33.0827 23.8534 33.0714 23.905 33.0493C24.0067 33.006 24.087 32.924 24.1282 32.8215C24.1695 32.719 24.1683 32.6043 24.125 32.5026C24.0343 32.2912 23.9875 32.0635 23.9875 31.8334C23.9875 30.913 24.7337 30.1668 25.6542 30.1668C26.3006 30.1636 26.8894 30.5382 27.1604 31.1251C27.1694 31.1387 27.1792 31.1518 27.1896 31.1643C27.1962 31.1786 27.2035 31.1925 27.2117 31.2059C27.2192 31.2151 27.23 31.2193 27.2383 31.228C27.2579 31.2483 27.2795 31.2665 27.3029 31.2822C27.3237 31.2982 27.3461 31.3122 27.3696 31.3239C27.3938 31.334 27.4189 31.3418 27.4446 31.3472C27.4702 31.3539 27.4965 31.358 27.5229 31.3593C27.5771 31.3588 27.6308 31.3498 27.6821 31.3326C27.6932 31.3306 27.7042 31.3279 27.715 31.3247C27.7285 31.3159 27.7415 31.3063 27.7538 31.2959C27.7688 31.2893 27.7834 31.2818 27.7975 31.2734C28.0164 31.0964 28.2894 31 28.5708 31.0001C29.058 31.0009 29.5004 31.2847 29.7042 31.7272C29.7997 31.9366 30.0468 32.0289 30.2563 31.9334C30.4657 31.8379 30.558 31.5908 30.4625 31.3814C30.1232 30.6418 29.3845 30.1675 28.5708 30.1668Z" fill="#04D361"/>
<path d="M20.3683 27.2714C20.3054 27.2918 18.8333 27.801 18.8333 29.3335C18.8333 29.5636 19.0199 29.7502 19.25 29.7502C19.4801 29.7502 19.6666 29.5636 19.6666 29.3335C19.7007 28.7523 20.0831 28.2494 20.6342 28.0614C20.8528 27.988 20.9705 27.7513 20.8971 27.5327C20.8237 27.3141 20.5869 27.1964 20.3683 27.2698V27.2714Z" fill="#04D361"/>
<path d="M26.2321 26.8209C26.2652 26.8293 26.2992 26.8335 26.3333 26.8334C26.5243 26.8332 26.6907 26.7032 26.7371 26.518C26.9288 25.7399 27.6176 25.1864 28.4187 25.1667C28.6488 25.1661 28.8349 24.9791 28.8344 24.749C28.8338 24.5189 28.6468 24.3328 28.4166 24.3334C27.2324 24.3491 26.2089 25.1646 25.9292 26.3155C25.8732 26.5387 26.0089 26.7649 26.2321 26.8209Z" fill="#04D361"/>
</g>
<defs>
<clipPath id="clip0">
<rect x="13" y="11" width="25" height="25" fill="white"/>
</clipPath>
</defs>
</svg>
