<svg width="50" height="49" viewBox="0 0 50 49" fill="none" xmlns="http://www.w3.org/2000/svg">
<rect width="50" height="49" rx="4" fill="#E5F9ED"/>
<path d="M34 24.5C34.0034 25.8199 33.6951 27.1219 33.1 28.3C32.3944 29.7118 31.3098 30.8992 29.9674 31.7293C28.6251 32.5594 27.0782 32.9994 25.5 33C24.1801 33.0035 22.8781 32.6951 21.7 32.1L16 34L17.9 28.3C17.3049 27.1219 16.9966 25.8199 17 24.5C17.0006 22.9218 17.4406 21.3749 18.2707 20.0326C19.1008 18.6903 20.2883 17.6056 21.7 16.9C22.8781 16.305 24.1801 15.9966 25.5 16H26C28.0843 16.115 30.053 16.9948 31.5291 18.4709C33.0052 19.947 33.885 21.9157 34 24V24.5Z" stroke="#04D361" stroke-linecap="round" stroke-linejoin="round"/>
</svg>
