<svg width="17" height="17" viewBox="0 0 17 17" fill="none" xmlns="http://www.w3.org/2000/svg">
<g clip-path="url(#clip0)">
<path d="M4.11161 15.7869C5.42508 16.5773 6.92687 16.9939 8.46991 16.9939C13.1457 16.9939 17 13.1784 17 8.49689C17 3.82082 13.1512 0 8.46991 0C3.80293 0 0.00609589 3.81174 0.00609589 8.49689C0.00609589 10.0605 0.422821 11.5738 1.21308 12.8883L0 17L4.11161 15.7869ZM1.00193 8.49689C1.00193 4.36076 4.35207 0.995705 8.46991 0.995705C12.6243 0.995705 16.0043 4.36076 16.0043 8.49689C16.0043 12.6331 12.6243 15.9981 8.46991 15.9981C7.04036 15.9981 5.65115 15.5931 4.45285 14.8269L4.26141 14.7046L1.47274 15.5274L2.29543 12.7386L2.17312 12.5473C1.40685 11.3487 1.00193 9.94823 1.00193 8.49689V8.49689Z" fill="#04D361"/>
<path d="M4.13805 6.9313C4.30251 7.79497 4.7907 9.45616 6.21207 10.8775C7.63345 12.2989 9.29465 12.7872 10.1584 12.9517C11.1475 13.14 12.599 13.1684 13.3083 12.4591L13.7038 12.0636C13.9034 11.864 14.0134 11.5985 14.0134 11.3162C14.0134 11.0338 13.9034 10.7685 13.7038 10.5689L12.1224 8.98742C11.9226 8.78769 11.6573 8.67783 11.3749 8.67783C11.0925 8.67783 10.8272 8.78769 10.6274 8.98742L10.2321 9.38275C9.99062 9.62425 9.53472 9.62529 9.29141 9.38573L7.714 7.74218C7.71166 7.73971 7.70933 7.73725 7.70686 7.73491C7.46497 7.49302 7.46497 7.09939 7.70686 6.8575L8.10219 6.46217C8.51541 6.04895 8.51541 5.38035 8.10219 4.96725L6.52076 3.38582C6.1087 2.97377 5.43816 2.97377 5.02597 3.38582L4.63065 3.78128V3.78115C4.06451 4.34742 3.87579 5.5544 4.13805 6.9313V6.9313ZM5.33479 4.48542C5.74983 4.07985 5.72765 4.07207 5.77343 4.07207C5.78912 4.07207 5.80482 4.07803 5.81675 4.08996C7.48313 5.7653 7.41621 5.66685 7.41621 5.71484C7.41621 5.73157 7.41011 5.74623 7.39831 5.75816L7.00285 6.15349C6.37316 6.78318 6.3707 7.80249 6.99883 8.43503L8.57715 10.0796C8.57961 10.082 8.58195 10.0844 8.58441 10.0869C9.21397 10.7165 10.3046 10.7185 10.9363 10.0869L11.3316 9.69156C11.3554 9.6677 11.3944 9.6677 11.4182 9.69156C13.0846 11.3668 13.0177 11.2683 13.0177 11.3163C13.0177 11.3332 13.0116 11.3477 12.9998 11.3596L12.6043 11.755C12.3334 12.0259 11.4704 12.188 10.3447 11.9736C9.59348 11.8304 8.14901 11.4063 6.91621 10.1735C5.68342 8.94073 5.2593 7.49627 5.11624 6.74505C4.90172 5.61938 5.06384 4.75623 5.33479 4.48542V4.48542Z" fill="#04D361"/>
</g>
<defs>
<clipPath id="clip0">
<rect width="17" height="17" fill="white"/>
</clipPath>
</defs>
</svg>
