<svg width="1920" height="82" viewBox="0 0 1920 82" fill="none" xmlns="http://www.w3.org/2000/svg">
<path d="M0 0H1920V59.1C1920 59.1 1706 61.1 1684.5 56.2C1655.9 49.7 1626.7 60.9 1600.5 66.4C1570.7 72.6 1538.2 74 1507.5 70C1481.9 66.7 1458.6 60.6 1432.4 62.9C1404.3 65.4 1375.8 69.7 1347.4 70.5C1318.3 71.3 1292.2 62.5 1263.6 63.1C1245.2 63.5 1227.9 69 1209.6 69.2C1192.3 69.4 1176 64.8 1159.4 62C1130.4 57.3 1099 58.4 1070.9 65.1C1053.3 69.3 1037 75.6 1018.6 78.1C987.5 82.3 955.9 74.8 925.3 69.3C868.6 59.2 813.2 76.6 755.3 69.4C722.8 65.3 691.6 56.5 658.7 62.5C627.8 68.1 597.3 80.1 564.7 81.1C519.1 82.6 478.5 60.3 432.9 61C403.6 61.4 376.7 71.3 347.7 74.1C295.1 79.1 242.3 60.5 189.6 65C170.6 66.6 152.3 71.4 133 72C113.5 72.6 19.9 70.6 0.1 70.6L0.2 0H0Z" fill="#07C95C"/>
</svg>
