<svg width="1920" height="33" viewBox="0 0 1920 33" fill="none" xmlns="http://www.w3.org/2000/svg">
<path d="M2.84123e-06 -5.05133e-09L1920 1.65552C1920 1.65552 1920 28.7128 1920 29.3749C1920 30.0371 1715.4 25.4021 1697.6 27.0574C1679.4 28.7128 1661.3 31.4441 1643 31.0302C1616.4 30.5336 1590.7 23.6639 1564.8 19.029C1509.9 9.26242 1444.7 14.9734 1388.3 14.9733C1344.1 14.4767 1304 30.1198 1260.3 30.1198C1225.4 30.1198 1190.4 28.8782 1155.6 28.4644C1119.2 28.0506 1085.7 18.284 1049.7 16.6287C1010.5 14.8078 972.3 28.2161 933.1 28.2989C902.1 28.3816 871.9 20.0221 841 17.208C790 12.573 745.8 28.8782 696.5 31.0302C654.1 32.851 609.1 33.1821 566.7 30.8646C516.5 28.1333 466.9 18.1184 416.3 19.9393C394.9 20.6842 373.8 23.5811 352.5 24.9881C298 28.4643 243.6 21.8429 189.1 21.2636C134.5 20.6842 81.9 29.3748 27.2 29.3747C18.1 29.3747 9.1 29.3747 2.73204e-07 29.3747L2.84123e-06 -5.05133e-09Z" fill="#F6F6F8"/>
</svg>
