<svg width="690" height="470" viewBox="0 0 690 470" fill="none" xmlns="http://www.w3.org/2000/svg">
<path d="M0 0C229.238 0 357.762 0 587 0V467C587 467 455 475 437 460.5C419 446 0 467 0 467V0Z" fill="#E4F8EC"/>
<path d="M279.08 417V409.128H283.616V409.968H280.076V412.44H283.064V413.292H280.076V416.148H283.736V417H279.08ZM285.312 417V411.168H286.128L286.212 412.008H286.248C286.528 411.728 286.82 411.496 287.124 411.312C287.436 411.12 287.796 411.024 288.204 411.024C288.82 411.024 289.268 411.216 289.548 411.6C289.836 411.984 289.98 412.552 289.98 413.304V417H288.996V413.436C288.996 412.884 288.908 412.488 288.732 412.248C288.556 412 288.276 411.876 287.892 411.876C287.588 411.876 287.32 411.952 287.088 412.104C286.856 412.256 286.592 412.48 286.296 412.776V417H285.312ZM293.711 417.144C293.399 417.144 293.135 417.096 292.919 417C292.711 416.904 292.539 416.772 292.403 416.604C292.275 416.436 292.183 416.232 292.127 415.992C292.071 415.752 292.043 415.488 292.043 415.2V411.972H291.179V411.228L292.091 411.168L292.211 409.536H293.039V411.168H294.611V411.972H293.039V415.212C293.039 415.572 293.103 415.852 293.231 416.052C293.367 416.244 293.603 416.34 293.939 416.34C294.043 416.34 294.155 416.324 294.275 416.292C294.395 416.26 294.503 416.224 294.599 416.184L294.791 416.928C294.631 416.984 294.455 417.032 294.263 417.072C294.079 417.12 293.895 417.144 293.711 417.144ZM295.929 417V411.168H296.745L296.829 412.224H296.865C297.065 411.856 297.305 411.564 297.585 411.348C297.873 411.132 298.185 411.024 298.521 411.024C298.753 411.024 298.961 411.064 299.145 411.144L298.953 412.008C298.857 411.976 298.769 411.952 298.689 411.936C298.609 411.92 298.509 411.912 298.389 411.912C298.141 411.912 297.881 412.012 297.609 412.212C297.345 412.412 297.113 412.76 296.913 413.256V417H295.929ZM301.141 417.144C300.653 417.144 300.245 417 299.917 416.712C299.597 416.424 299.437 416.016 299.437 415.488C299.437 414.848 299.721 414.36 300.289 414.024C300.857 413.68 301.765 413.44 303.013 413.304C303.013 413.12 302.993 412.94 302.953 412.764C302.921 412.588 302.861 412.432 302.773 412.296C302.685 412.16 302.561 412.052 302.401 411.972C302.249 411.884 302.053 411.84 301.812 411.84C301.477 411.84 301.161 411.904 300.865 412.032C300.569 412.16 300.305 412.304 300.073 412.464L299.689 411.78C299.961 411.604 300.293 411.436 300.685 411.276C301.077 411.108 301.509 411.024 301.98 411.024C302.693 411.024 303.209 411.244 303.529 411.684C303.849 412.116 304.009 412.696 304.009 413.424V417H303.193L303.109 416.304H303.073C302.793 416.536 302.493 416.736 302.173 416.904C301.853 417.064 301.509 417.144 301.141 417.144ZM301.429 416.352C301.709 416.352 301.973 416.288 302.221 416.16C302.469 416.024 302.733 415.828 303.013 415.572V413.952C302.525 414.016 302.113 414.092 301.777 414.18C301.449 414.268 301.181 414.372 300.973 414.492C300.773 414.612 300.625 414.752 300.529 414.912C300.441 415.064 300.396 415.232 300.396 415.416C300.396 415.752 300.497 415.992 300.697 416.136C300.897 416.28 301.141 416.352 301.429 416.352ZM305.843 417V411.168H306.659L306.743 412.224H306.779C306.979 411.856 307.219 411.564 307.499 411.348C307.787 411.132 308.099 411.024 308.435 411.024C308.667 411.024 308.875 411.064 309.059 411.144L308.867 412.008C308.771 411.976 308.683 411.952 308.603 411.936C308.523 411.92 308.423 411.912 308.303 411.912C308.055 411.912 307.795 412.012 307.523 412.212C307.259 412.412 307.027 412.76 306.827 413.256V417H305.843Z" fill="white"/>
<path d="M689.723 28.347H78.262V419.954H689.723V28.347Z" fill="#E6E6E6"/>
<path d="M674.238 77.464H97.746V396.786H674.238V77.464Z" fill="white"/>
<path d="M689.461 28H78V53.977H689.461V28Z" fill="#04D361"/>
<path d="M97.305 46.096C99.9642 46.096 102.12 43.9403 102.12 41.281C102.12 38.6218 99.9642 36.466 97.305 36.466C94.6457 36.466 92.49 38.6218 92.49 41.281C92.49 43.9403 94.6457 46.096 97.305 46.096Z" fill="white"/>
<path d="M115.58 46.096C118.239 46.096 120.395 43.9403 120.395 41.281C120.395 38.6218 118.239 36.466 115.58 36.466C112.921 36.466 110.765 38.6218 110.765 41.281C110.765 43.9403 112.921 46.096 115.58 46.096Z" fill="white"/>
<path d="M133.855 46.096C136.514 46.096 138.67 43.9403 138.67 41.281C138.67 38.6218 136.514 36.466 133.855 36.466C131.196 36.466 129.04 38.6218 129.04 41.281C129.04 43.9403 131.196 46.096 133.855 46.096Z" fill="white"/>
<path d="M198.605 122.221L160.472 159.878L198.605 197.534L207.185 188.954L178.35 160.115L207.426 131.039L198.605 122.221Z" fill="#04D361"/>
<path d="M229.85 122.221L267.982 159.878L229.85 197.534L221.27 188.954L250.107 160.116L221.029 131.039L229.85 122.221Z" fill="#04D361"/>
<path d="M353.194 131.671C350.075 131.671 347.547 133.465 347.547 135.677C347.547 137.889 350.075 139.683 353.194 139.683H619.408C622.527 139.683 625.055 137.889 625.055 135.677C625.055 133.465 622.527 131.671 619.408 131.671H353.194Z" fill="#E6E6E6"/>
<path d="M616.761 351.15H168.923C164.345 351.15 160.635 348.507 160.63 345.25V266.208C160.635 262.951 164.345 260.308 168.923 260.308H616.761C621.339 260.308 625.049 262.951 625.054 266.208V345.249C625.05 348.506 621.339 351.146 616.761 351.15ZM168.923 262.666C166.176 262.666 163.95 264.252 163.947 266.206V345.247C163.947 347.201 166.176 348.785 168.923 348.787H616.761C619.508 348.787 621.734 347.201 621.737 345.247V266.208C621.737 264.254 619.508 262.67 616.761 262.668L168.923 262.666Z" fill="#E6E6E6"/>
<path d="M215.04 325.731C226.106 325.731 235.076 316.761 235.076 305.695C235.076 294.629 226.106 285.659 215.04 285.659C203.974 285.659 195.004 294.629 195.004 305.695C195.004 316.761 203.974 325.731 215.04 325.731Z" fill="#E6E6E6"/>
<path d="M271.55 289.671C270.488 289.67 269.468 290.09 268.716 290.841C267.964 291.591 267.54 292.609 267.539 293.672C267.537 294.734 267.958 295.754 268.708 296.506C269.459 297.258 270.477 297.682 271.54 297.683H460.411C461.473 297.683 462.492 297.261 463.244 296.51C463.995 295.758 464.417 294.739 464.417 293.677C464.417 292.615 463.995 291.596 463.244 290.844C462.492 290.093 461.473 289.671 460.411 289.671H271.55Z" fill="#04D361"/>
<path d="M271.55 313.708C271.024 313.707 270.503 313.81 270.017 314.011C269.53 314.212 269.088 314.506 268.716 314.878C267.964 315.628 267.54 316.646 267.539 317.709C267.537 318.771 267.958 319.791 268.708 320.543C269.459 321.295 270.477 321.719 271.54 321.72H352.816C353.878 321.721 354.898 321.301 355.65 320.55C356.402 319.8 356.826 318.782 356.827 317.719C356.829 316.657 356.408 315.637 355.658 314.885C354.907 314.133 353.889 313.709 352.826 313.708H271.55Z" fill="#04D361"/>
<path d="M351.25 155.671C350.243 155.752 349.304 156.209 348.619 156.952C347.934 157.694 347.554 158.667 347.554 159.677C347.554 160.687 347.934 161.66 348.619 162.402C349.304 163.145 350.243 163.602 351.25 163.683H525.72C526.727 163.602 527.666 163.145 528.351 162.402C529.036 161.66 529.416 160.687 529.416 159.677C529.416 158.667 529.036 157.694 528.351 156.952C527.666 156.209 526.727 155.752 525.72 155.671H351.25Z" fill="#E6E6E6"/>
<path d="M352.398 179.671C349.719 179.671 347.547 181.465 347.547 183.677C347.547 185.889 349.719 187.683 352.398 187.683H581.098C583.777 187.683 585.949 185.889 585.949 183.677C585.949 181.465 583.777 179.671 581.098 179.671H352.398Z" fill="#E6E6E6"/>
</svg>
