<svg width="300" height="131" viewBox="0 0 300 131" fill="none" xmlns="http://www.w3.org/2000/svg">
<path d="M102.293 22.7227C103.293 24.3341 103.979 25.9453 104.349 27.5564C104.73 29.2136 104.855 30.8087 104.723 32.3417C104.647 33.9102 104.356 35.3829 103.849 36.76C103.342 38.1371 102.757 39.3867 102.094 40.5088C101.374 41.5955 100.506 42.668 99.4895 43.7262C98.4728 44.7845 97.2756 45.6904 95.898 46.444C94.577 47.233 93.088 47.8184 91.4309 48.2002C89.82 48.5713 88.0711 48.6591 86.1844 48.4637L97.2953 30.7083C98.0102 31.0768 98.7073 31.4737 99.3866 31.8988C100.077 32.37 100.744 32.8464 101.387 33.3282L103.61 29.399C102.966 28.9172 102.322 28.4355 101.678 27.9537C101.091 27.5073 100.48 27.0663 99.8471 26.6306L102.293 22.7227ZM106.239 43.0438C107.54 40.9022 108.458 38.6791 108.995 36.3744C109.587 34.1051 109.768 31.8338 109.536 29.5607C109.35 27.2769 108.762 25.0372 107.772 22.8417C106.839 20.6815 105.531 18.6806 103.847 16.8388L101.709 14.4959L95.6114 24.3346C92.0796 22.6762 88.4041 21.6568 84.5846 21.2765C80.8113 20.8855 76.9914 21.1354 73.125 22.0261C68.4302 23.1077 64.2179 25.0233 60.4883 27.7729C56.7586 30.5225 53.7012 33.7715 51.316 37.5201C48.9414 41.3147 47.333 45.4902 46.4907 50.0466C45.6484 54.6031 45.7672 59.2289 46.847 63.9242C47.9268 68.6195 49.8407 72.8318 52.5886 76.5611C55.3365 80.2904 58.607 83.342 62.4002 85.7157C66.1934 88.0894 70.3677 89.6967 74.9231 90.5376C79.4785 91.3785 84.1036 91.2581 88.7985 90.1766C91.8823 89.4661 94.8019 88.3573 97.5572 86.8501C100.369 85.3783 102.924 83.5293 105.224 81.3032L101.801 77.8019C99.8634 79.7025 97.6851 81.2949 95.2663 82.5792C92.9042 83.8989 90.3883 84.8663 87.7186 85.4813C83.6682 86.4144 79.6679 86.512 75.7177 85.774C71.8242 85.0714 68.2356 83.6927 64.952 81.6379C61.6683 79.583 58.8311 76.9406 56.4404 73.7107C54.1063 70.5161 52.4735 66.8934 51.5419 62.8426C50.6102 58.7918 50.491 54.7962 51.1842 50.8557C51.934 46.9508 53.3367 43.3558 55.3923 40.0709C57.4585 36.8321 60.0837 34.0219 63.2679 31.6403C66.5087 29.2942 70.1544 27.6545 74.2049 26.7214C77.3808 25.9897 80.5351 25.7962 83.6678 26.1409C86.811 26.5316 89.8832 27.3507 92.8842 28.5982L78.5304 51.5357L81.6415 52.4185C84.034 53.1276 86.4056 53.4294 88.7563 53.3241C91.1635 53.2543 93.4348 52.8037 95.57 51.9725C97.7159 51.1874 99.6796 50.0321 101.461 48.5068C103.3 47.017 104.892 45.1959 106.239 43.0438Z" fill="#00C850"/>
<path d="M126.241 87.7575V63.8124H121.871V58.3051H126.241C126.241 51.1215 130.412 47.5298 138.753 47.5298V53.8154C137.755 53.8154 136.937 53.8952 136.298 54.0548C135.7 54.1745 135.221 54.414 134.862 54.7732C134.502 55.1323 134.243 55.6112 134.083 56.2099C133.964 56.7686 133.904 57.467 133.904 58.3051H138.932V63.8124H133.904V87.7575H126.241Z" fill="#27272D"/>
<path d="M153.401 82.0107C158.15 82.0107 160.524 79.0175 160.524 73.0313C160.524 67.0849 158.15 64.1117 153.401 64.1117C148.652 64.1117 146.277 67.0849 146.277 73.0313C146.277 79.0175 148.652 82.0107 153.401 82.0107ZM153.401 88.5357C151.006 88.5357 148.871 88.1566 146.995 87.3983C145.12 86.64 143.523 85.5825 142.206 84.2256C140.929 82.8687 139.952 81.2324 139.273 79.3168C138.595 77.4012 138.255 75.306 138.255 73.0313C138.255 70.7166 138.595 68.6014 139.273 66.6858C139.991 64.7702 141.009 63.134 142.326 61.7771C143.643 60.4202 145.219 59.3826 147.055 58.6642C148.931 57.906 151.046 57.5268 153.401 57.5268C155.715 57.5268 157.791 57.906 159.626 58.6642C161.462 59.3826 163.019 60.4202 164.296 61.7771C165.613 63.0941 166.61 64.7104 167.289 66.626C168.007 68.5416 168.366 70.6767 168.366 73.0313C168.366 75.3859 168.007 77.521 167.289 79.4366C166.61 81.3123 165.613 82.9286 164.296 84.2854C163.019 85.6423 161.442 86.6999 159.567 87.4582C157.731 88.1765 155.675 88.5357 153.401 88.5357Z" fill="#27272D"/>
<path d="M171.184 87.7575V58.3051H178.487V61.837C179.125 60.8392 179.784 60.061 180.462 59.5023C181.181 58.9436 181.899 58.5246 182.617 58.2452C183.376 57.9259 184.134 57.7264 184.892 57.6466C185.65 57.5668 186.429 57.5268 187.227 57.5268H188.244V65.4886C187.526 65.3688 186.808 65.309 186.089 65.309C181.34 65.309 178.966 67.6835 178.966 72.4326V87.7575H171.184Z" fill="#27272D"/>
<path d="M202.908 81.8909C204.823 81.8909 206.4 81.1726 207.637 79.7359C208.914 78.2593 209.552 76.2638 209.552 73.7496C209.552 67.4441 207.337 64.2913 202.908 64.2913C198.478 64.2913 196.263 67.2845 196.263 73.2707C196.263 75.9047 196.881 77.9999 198.119 79.5563C199.396 81.1127 200.992 81.8909 202.908 81.8909ZM209.313 83.8065C208.754 85.1235 207.736 86.1611 206.26 86.9194C204.823 87.6377 203.147 87.9969 201.231 87.9969C198.797 87.9969 196.742 87.5779 195.066 86.7398C193.429 85.8618 192.092 84.7244 191.055 83.3276C190.057 81.9308 189.319 80.3146 188.84 78.4788C188.401 76.643 188.181 74.7673 188.181 72.8517C188.181 70.5769 188.521 68.5017 189.199 66.626C189.877 64.7104 190.795 63.0941 191.953 61.7771C193.11 60.4202 194.467 59.3826 196.023 58.6642C197.58 57.906 199.256 57.5268 201.052 57.5268C204.723 57.5268 207.477 59.0035 209.313 61.9567V58.3051H217.095V88.0568C217.095 90.2917 216.716 92.2472 215.958 93.9233C215.199 95.6394 214.162 97.0561 212.845 98.1736C211.528 99.3309 209.971 100.209 208.175 100.808C206.38 101.406 204.464 101.705 202.429 101.705C200.393 101.705 198.498 101.406 196.742 100.808C194.986 100.249 193.469 99.4307 192.192 98.3531C190.955 97.3155 189.977 96.0385 189.259 94.5219C188.541 93.0054 188.181 91.2894 188.181 89.3738H195.425C195.425 91.1696 196.003 92.5465 197.161 93.5043C198.358 94.502 199.934 95.0008 201.89 95.0008C203.965 95.0008 205.721 94.4222 207.158 93.2648C208.595 92.1474 209.313 90.6109 209.313 88.6554V83.8065Z" fill="#27272D"/>
<path d="M239.919 70.1579C239.879 69.0803 239.68 68.1425 239.32 67.3443C239.001 66.5062 238.562 65.8278 238.003 65.309C237.445 64.7503 236.806 64.3512 236.088 64.1117C235.369 63.8324 234.631 63.6927 233.873 63.6927C232.316 63.6927 230.96 64.2714 229.802 65.4287C228.685 66.5461 228.046 68.1225 227.887 70.1579H239.919ZM227.647 75.0666C227.767 77.3015 228.405 79.0774 229.563 80.3944C230.76 81.7113 232.316 82.3698 234.232 82.3698C235.509 82.3698 236.627 82.0905 237.584 81.5318C238.582 80.9331 239.221 80.115 239.5 79.0774H247.522C246.604 82.1104 245.007 84.4451 242.733 86.0813C240.458 87.7176 237.744 88.5357 234.591 88.5357C224.774 88.5357 219.865 83.188 219.865 72.4925C219.865 70.2177 220.184 68.1624 220.823 66.3266C221.461 64.4909 222.379 62.9145 223.577 61.5975C224.814 60.2805 226.31 59.2828 228.066 58.6044C229.822 57.886 231.838 57.5268 234.112 57.5268C238.662 57.5268 242.094 58.9835 244.409 61.8968C246.763 64.8101 247.941 69.2001 247.941 75.0666H227.647Z" fill="#27272D"/>
<path d="M248.989 87.7575V79.676H257.31V87.7575H248.989Z" fill="#27272D"/>
</svg>
