<svg width="587" height="521" viewBox="0 0 587 521" fill="none" xmlns="http://www.w3.org/2000/svg">
<path d="M0 0C229.238 0 357.762 0 587 0V467C587 467 455 475 437 460.5C419 446 0 467 0 467V0Z" fill="#E4F8EC"/>
<g filter="url(#filter0_d)">
<rect x="130" y="46" width="327" height="455" rx="4" fill="white"/>
</g>
<rect x="154" y="76" width="280" height="395" fill="#E4F8EC"/>
<circle cx="293.5" cy="185.5" r="80.5" fill="white"/>
<rect x="194" y="392" width="200" height="40" rx="4" fill="#04D361"/>
<g clip-path="url(#clip0)">
<path d="M321.412 218.984V226.1C321.412 226.901 320.763 227.55 319.962 227.55H267.038C266.237 227.55 265.588 226.901 265.588 226.1V218.984C265.588 211.552 271.589 205.388 279.021 205.468C280.115 205.48 281.159 205.258 282.099 204.849V204.85C284.084 209.365 288.57 212.292 293.5 212.292C298.43 212.292 302.916 209.365 304.901 204.85V204.849C305.841 205.258 306.885 205.48 307.979 205.468C315.411 205.388 321.412 211.552 321.412 218.984Z" fill="#C4F3D7"/>
<path d="M310.9 149.175C310.9 149.768 311.261 150.301 311.811 150.521L318.392 153.154C319.205 153.479 319.538 154.44 319.119 155.209C317.241 158.65 316.156 162.627 316.156 166.815V174.807C316.156 177.409 314.046 179.519 311.444 179.519V168.323C311.444 163.518 307.549 159.623 302.744 159.623H284.256C279.451 159.623 275.556 163.518 275.556 168.323V179.519C272.973 179.519 271.025 177.477 271.025 175.071V159.094C271.025 153.845 273.628 148.937 277.972 145.99L280.103 144.545C280.908 144 282.011 144.385 282.301 145.313L283.053 147.72C283.309 148.539 284.217 148.958 285.006 148.621L295.708 144.055C296.477 143.727 297.362 144.114 297.643 144.901L298.486 147.261C298.741 147.975 299.502 148.371 300.233 148.172L309.068 145.762C309.991 145.511 310.9 146.205 310.9 147.161V149.175H310.9Z" fill="#C4F3D7"/>
<path d="M311.444 180.086C311.444 190 303.406 198.03 293.5 198.03C283.595 198.03 275.556 190 275.556 180.086C275.556 178.868 275.556 169.714 275.556 168.323C275.556 163.518 279.451 159.623 284.256 159.623H302.744C307.549 159.623 311.444 163.518 311.444 168.323V180.086Z" fill="#C4F3D7"/>
<path d="M300.592 199.714C296.127 201.583 291.22 201.728 286.408 199.714C286.653 198.694 286.613 198.034 286.613 196.738L286.64 196.671C291.005 198.482 295.987 198.486 300.36 196.671L300.387 196.738C300.387 198.034 300.347 198.694 300.592 199.714Z" fill="#B9DCFF"/>
<path d="M289.437 191.673C292.387 193.519 290.061 198.045 286.832 196.749C280.192 194.084 275.556 187.613 275.556 180.086V168.323C275.556 166.495 276.12 164.799 277.083 163.399C278.289 161.644 281.007 162.514 280.994 164.644C280.994 164.688 280.994 176.417 280.994 176.461C280.994 183.079 284.472 188.567 289.437 191.673Z" fill="#E8F3FF"/>
<path d="M282.851 206.295C283.849 207.939 282.944 210.084 281.084 210.575C276.642 211.747 270.844 214.871 270.844 223.515V227.55H267.038C266.237 227.55 265.588 226.901 265.588 226.1V218.984C265.588 211.551 271.589 205.389 279.02 205.468C280.115 205.479 281.159 205.258 282.099 204.849V204.85C282.32 205.352 282.572 205.834 282.851 206.295Z" fill="#E4F8EC"/>
<path d="M304.149 206.295C303.151 207.939 304.056 210.084 305.916 210.575C310.358 211.747 316.156 214.871 316.156 223.515V227.55H319.962C320.763 227.55 321.412 226.901 321.412 226.1V218.984C321.412 211.551 315.411 205.389 307.98 205.468C306.885 205.479 305.841 205.258 304.9 204.849V204.85C304.68 205.352 304.428 205.834 304.149 206.295Z" fill="#8DD9AB"/>
<path d="M285.007 148.621C285.049 148.603 285.082 148.662 285.043 148.688L283.41 149.796C279.065 152.743 276.463 157.651 276.463 162.9V164.454C275.883 165.619 275.556 166.933 275.556 168.323V179.519C272.973 179.519 271.025 177.478 271.025 175.071V159.094C271.025 153.845 273.628 148.937 277.972 145.99L280.104 144.545C280.909 144 282.011 144.386 282.301 145.314L283.053 147.721C283.308 148.54 284.216 148.959 285.007 148.621V148.621Z" fill="#E8F3FF"/>
<path d="M322.863 218.985V227.55C322.863 228.351 322.213 229 321.413 229C320.612 229 319.963 228.351 319.963 227.55V218.985C319.963 212.316 314.566 206.919 307.896 206.919C304.741 206.919 301.877 205.311 300.237 202.618C299.82 201.934 300.037 201.042 300.721 200.625C301.405 200.209 302.297 200.426 302.714 201.109C303.823 202.931 305.761 204.019 307.896 204.019C316.168 204.019 322.863 210.712 322.863 218.985V218.985ZM302.633 208.425C303.149 209.038 303.07 209.953 302.457 210.468C295.78 216.089 285.634 214.249 281.371 206.63C280.64 206.819 279.88 206.919 279.104 206.919C272.42 206.919 267.038 212.329 267.038 218.985V227.55C267.038 228.351 266.389 229 265.588 229C264.787 229 264.138 228.351 264.138 227.55V218.985C264.138 210.713 270.831 204.019 279.104 204.019C282.448 204.019 285.163 201.325 285.163 197.976V197.594C278.834 194.567 274.391 188.208 274.121 180.802C271.516 180.176 269.575 177.845 269.575 175.071V159.094C269.575 153.357 272.411 148.009 277.159 144.79L280.905 142.25C281.709 141.705 282.813 142.09 283.103 143.018L284.437 147.287L296.556 142.116C297.325 141.789 298.21 142.177 298.491 142.962L299.852 146.773L310.519 143.863C311.441 143.612 312.35 144.307 312.35 145.262V149.174L320.501 152.435C321.345 152.772 321.674 153.795 321.185 154.561C318.844 158.228 317.606 162.465 317.606 166.815V175.07C317.606 175.871 316.957 176.52 316.156 176.52C315.356 176.52 314.706 175.871 314.706 175.07V166.815C314.706 162.493 315.79 158.27 317.853 154.499L310.362 151.503C309.811 151.283 309.45 150.749 309.45 150.157V147.161L299.319 149.924C298.589 150.123 297.827 149.726 297.572 149.013L296.277 145.388L284.101 150.584C283.309 150.921 282.403 150.5 282.148 149.683L280.917 145.746L278.786 147.19C274.835 149.869 272.475 154.319 272.475 159.094V175.071C272.475 176.221 273.138 177.221 274.107 177.724V168.324C274.107 162.727 278.66 158.174 284.257 158.174H302.744C308.341 158.174 312.894 162.727 312.894 168.323C312.894 168.355 312.894 180.205 312.893 180.237C312.794 193.036 300.422 202.34 288.032 198.692C287.806 201.554 286.253 203.98 284.034 205.446C287.49 211.282 295.373 212.641 300.59 208.25C301.202 207.734 302.117 207.813 302.633 208.425V208.425ZM293.5 196.579C302.595 196.579 309.994 189.18 309.994 180.085V168.323C309.994 164.326 306.741 161.074 302.744 161.074H284.256C280.259 161.074 277.006 164.326 277.006 168.324V180.085C277.006 189.18 284.405 196.579 293.5 196.579V196.579Z" fill="#04D361"/>
</g>
<rect x="416" y="14" width="81" height="81" rx="4" fill="#079D4A"/>
<rect x="91" y="179" width="87" height="87" rx="4" fill="#04D361"/>
<path d="M130.659 234.396C129.559 234.396 128.525 234.242 127.557 233.934C126.611 233.604 125.786 233.076 125.082 232.35C124.4 231.602 123.861 230.634 123.465 229.446C123.069 228.258 122.871 226.795 122.871 225.057V212.352H125.61V225.123C125.61 226.421 125.742 227.51 126.006 228.39C126.27 229.27 126.622 229.974 127.062 230.502C127.524 231.03 128.063 231.415 128.679 231.657C129.295 231.877 129.955 231.987 130.659 231.987C131.385 231.987 132.056 231.877 132.672 231.657C133.288 231.415 133.827 231.03 134.289 230.502C134.751 229.974 135.114 229.27 135.378 228.39C135.642 227.51 135.774 226.421 135.774 225.123V212.352H138.414V225.057C138.414 226.795 138.216 228.258 137.82 229.446C137.424 230.634 136.874 231.602 136.17 232.35C135.488 233.076 134.674 233.604 133.728 233.934C132.782 234.242 131.759 234.396 130.659 234.396ZM144.24 234V212.352H146.979V234H144.24Z" fill="white"/>
<path d="M448.659 66.396C447.559 66.396 446.525 66.242 445.557 65.934C444.611 65.604 443.786 65.076 443.082 64.35C442.4 63.602 441.861 62.634 441.465 61.446C441.069 60.258 440.871 58.795 440.871 57.057V44.352H443.61V57.123C443.61 58.421 443.742 59.51 444.006 60.39C444.27 61.27 444.622 61.974 445.062 62.502C445.524 63.03 446.063 63.415 446.679 63.657C447.295 63.877 447.955 63.987 448.659 63.987C449.385 63.987 450.056 63.877 450.672 63.657C451.288 63.415 451.827 63.03 452.289 62.502C452.751 61.974 453.114 61.27 453.378 60.39C453.642 59.51 453.774 58.421 453.774 57.123V44.352H456.414V57.057C456.414 58.795 456.216 60.258 455.82 61.446C455.424 62.634 454.874 63.602 454.17 64.35C453.488 65.076 452.674 65.604 451.728 65.934C450.782 66.242 449.759 66.396 448.659 66.396ZM459.442 66L465.745 54.813L459.871 44.352H462.907L465.844 49.896C466.13 50.402 466.394 50.897 466.636 51.381C466.9 51.843 467.197 52.393 467.527 53.031H467.659C467.967 52.393 468.231 51.843 468.451 51.381C468.693 50.897 468.946 50.402 469.21 49.896L472.081 44.352H474.985L469.078 54.945L475.381 66H472.345L469.177 60.159C468.891 59.631 468.594 59.092 468.286 58.542C468 57.97 467.681 57.354 467.329 56.694H467.197C466.889 57.354 466.592 57.97 466.306 58.542C466.02 59.092 465.745 59.631 465.481 60.159L462.346 66H459.442Z" fill="white"/>
<path d="M279.08 417V409.128H283.616V409.968H280.076V412.44H283.064V413.292H280.076V416.148H283.736V417H279.08ZM285.312 417V411.168H286.128L286.212 412.008H286.248C286.528 411.728 286.82 411.496 287.124 411.312C287.436 411.12 287.796 411.024 288.204 411.024C288.82 411.024 289.268 411.216 289.548 411.6C289.836 411.984 289.98 412.552 289.98 413.304V417H288.996V413.436C288.996 412.884 288.908 412.488 288.732 412.248C288.556 412 288.276 411.876 287.892 411.876C287.588 411.876 287.32 411.952 287.088 412.104C286.856 412.256 286.592 412.48 286.296 412.776V417H285.312ZM293.711 417.144C293.399 417.144 293.135 417.096 292.919 417C292.711 416.904 292.539 416.772 292.403 416.604C292.275 416.436 292.183 416.232 292.127 415.992C292.071 415.752 292.043 415.488 292.043 415.2V411.972H291.179V411.228L292.091 411.168L292.211 409.536H293.039V411.168H294.611V411.972H293.039V415.212C293.039 415.572 293.103 415.852 293.231 416.052C293.367 416.244 293.603 416.34 293.939 416.34C294.043 416.34 294.155 416.324 294.275 416.292C294.395 416.26 294.503 416.224 294.599 416.184L294.791 416.928C294.631 416.984 294.455 417.032 294.263 417.072C294.079 417.12 293.895 417.144 293.711 417.144ZM295.929 417V411.168H296.745L296.829 412.224H296.865C297.065 411.856 297.305 411.564 297.585 411.348C297.873 411.132 298.185 411.024 298.521 411.024C298.753 411.024 298.961 411.064 299.145 411.144L298.953 412.008C298.857 411.976 298.769 411.952 298.689 411.936C298.609 411.92 298.509 411.912 298.389 411.912C298.141 411.912 297.881 412.012 297.609 412.212C297.345 412.412 297.113 412.76 296.913 413.256V417H295.929ZM301.141 417.144C300.653 417.144 300.245 417 299.917 416.712C299.597 416.424 299.437 416.016 299.437 415.488C299.437 414.848 299.721 414.36 300.289 414.024C300.857 413.68 301.765 413.44 303.013 413.304C303.013 413.12 302.993 412.94 302.953 412.764C302.921 412.588 302.861 412.432 302.773 412.296C302.685 412.16 302.561 412.052 302.401 411.972C302.249 411.884 302.053 411.84 301.812 411.84C301.477 411.84 301.161 411.904 300.865 412.032C300.569 412.16 300.305 412.304 300.073 412.464L299.689 411.78C299.961 411.604 300.293 411.436 300.685 411.276C301.077 411.108 301.509 411.024 301.98 411.024C302.693 411.024 303.209 411.244 303.529 411.684C303.849 412.116 304.009 412.696 304.009 413.424V417H303.193L303.109 416.304H303.073C302.793 416.536 302.493 416.736 302.173 416.904C301.853 417.064 301.509 417.144 301.141 417.144ZM301.429 416.352C301.709 416.352 301.973 416.288 302.221 416.16C302.469 416.024 302.733 415.828 303.013 415.572V413.952C302.525 414.016 302.113 414.092 301.777 414.18C301.449 414.268 301.181 414.372 300.973 414.492C300.773 414.612 300.625 414.752 300.529 414.912C300.441 415.064 300.396 415.232 300.396 415.416C300.396 415.752 300.497 415.992 300.697 416.136C300.897 416.28 301.141 416.352 301.429 416.352ZM305.843 417V411.168H306.659L306.743 412.224H306.779C306.979 411.856 307.219 411.564 307.499 411.348C307.787 411.132 308.099 411.024 308.435 411.024C308.667 411.024 308.875 411.064 309.059 411.144L308.867 412.008C308.771 411.976 308.683 411.952 308.603 411.936C308.523 411.92 308.423 411.912 308.303 411.912C308.055 411.912 307.795 412.012 307.523 412.212C307.259 412.412 307.027 412.76 306.827 413.256V417H305.843Z" fill="white"/>
<path d="M268.08 296V288.128H270.42C270.82 288.128 271.184 288.164 271.512 288.236C271.848 288.308 272.132 288.42 272.364 288.572C272.604 288.724 272.788 288.924 272.916 289.172C273.052 289.412 273.12 289.704 273.12 290.048C273.12 290.44 273.02 290.796 272.82 291.116C272.628 291.428 272.344 291.644 271.968 291.764V291.812C272.448 291.9 272.836 292.1 273.132 292.412C273.428 292.724 273.576 293.152 273.576 293.696C273.576 294.08 273.504 294.416 273.36 294.704C273.216 294.992 273.012 295.232 272.748 295.424C272.484 295.616 272.168 295.76 271.8 295.856C271.432 295.952 271.028 296 270.588 296H268.08ZM269.076 291.476H270.24C270.912 291.476 271.396 291.36 271.692 291.128C271.988 290.896 272.136 290.58 272.136 290.18C272.136 289.724 271.98 289.4 271.668 289.208C271.364 289.016 270.904 288.92 270.288 288.92H269.076V291.476ZM269.076 295.208H270.444C271.124 295.208 271.652 295.084 272.028 294.836C272.404 294.58 272.592 294.188 272.592 293.66C272.592 293.172 272.408 292.816 272.04 292.592C271.672 292.36 271.14 292.244 270.444 292.244H269.076V295.208ZM277.403 296.144C277.011 296.144 276.643 296.076 276.299 295.94C275.963 295.796 275.667 295.596 275.411 295.34C275.163 295.076 274.967 294.756 274.823 294.38C274.679 294.004 274.607 293.576 274.607 293.096C274.607 292.616 274.679 292.188 274.823 291.812C274.975 291.428 275.171 291.104 275.411 290.84C275.659 290.576 275.939 290.376 276.251 290.24C276.563 290.096 276.887 290.024 277.223 290.024C277.591 290.024 277.919 290.088 278.207 290.216C278.503 290.344 278.747 290.528 278.939 290.768C279.139 291.008 279.291 291.296 279.395 291.632C279.499 291.968 279.551 292.344 279.551 292.76C279.551 292.864 279.547 292.968 279.539 293.072C279.539 293.168 279.531 293.252 279.515 293.324H275.579C275.619 293.948 275.811 294.444 276.155 294.812C276.507 295.172 276.963 295.352 277.523 295.352C277.803 295.352 278.059 295.312 278.291 295.232C278.531 295.144 278.759 295.032 278.975 294.896L279.323 295.544C279.067 295.704 278.783 295.844 278.471 295.964C278.159 296.084 277.803 296.144 277.403 296.144ZM275.567 292.616H278.687C278.687 292.024 278.559 291.576 278.303 291.272C278.055 290.96 277.703 290.804 277.247 290.804C277.039 290.804 276.839 290.844 276.647 290.924C276.463 291.004 276.295 291.124 276.143 291.284C275.991 291.436 275.863 291.624 275.759 291.848C275.663 292.072 275.599 292.328 275.567 292.616ZM280.992 296V290.168H281.808L281.892 291.008H281.928C282.184 290.728 282.46 290.496 282.756 290.312C283.06 290.12 283.388 290.024 283.74 290.024C284.188 290.024 284.536 290.124 284.784 290.324C285.04 290.516 285.228 290.788 285.348 291.14C285.652 290.804 285.956 290.536 286.26 290.336C286.572 290.128 286.908 290.024 287.268 290.024C287.868 290.024 288.312 290.216 288.6 290.6C288.896 290.984 289.044 291.552 289.044 292.304V296H288.06V292.436C288.06 291.884 287.972 291.488 287.796 291.248C287.62 291 287.348 290.876 286.98 290.876C286.54 290.876 286.052 291.176 285.516 291.776V296H284.532V292.436C284.532 291.884 284.444 291.488 284.268 291.248C284.092 291 283.816 290.876 283.44 290.876C283 290.876 282.512 291.176 281.976 291.776V296H280.992ZM294.603 296L292.503 290.168H293.523L294.627 293.48C294.715 293.768 294.803 294.056 294.891 294.344C294.987 294.632 295.079 294.916 295.167 295.196H295.215C295.303 294.916 295.391 294.632 295.479 294.344C295.567 294.056 295.655 293.768 295.743 293.48L296.847 290.168H297.819L295.755 296H294.603ZM298.945 296V290.168H299.929V296H298.945ZM299.449 288.968C299.257 288.968 299.093 288.908 298.957 288.788C298.829 288.668 298.765 288.516 298.765 288.332C298.765 288.14 298.829 287.988 298.957 287.876C299.093 287.756 299.257 287.696 299.449 287.696C299.641 287.696 299.801 287.756 299.929 287.876C300.065 287.988 300.133 288.14 300.133 288.332C300.133 288.516 300.065 288.668 299.929 288.788C299.801 288.908 299.641 288.968 299.449 288.968ZM301.898 296V290.168H302.714L302.798 291.008H302.834C303.114 290.728 303.406 290.496 303.71 290.312C304.022 290.12 304.382 290.024 304.79 290.024C305.406 290.024 305.854 290.216 306.134 290.6C306.422 290.984 306.566 291.552 306.566 292.304V296H305.582V292.436C305.582 291.884 305.494 291.488 305.318 291.248C305.142 291 304.862 290.876 304.478 290.876C304.174 290.876 303.906 290.952 303.674 291.104C303.442 291.256 303.178 291.48 302.882 291.776V296H301.898ZM310.453 296.144C309.717 296.144 309.129 295.88 308.689 295.352C308.257 294.824 308.041 294.072 308.041 293.096C308.041 292.624 308.109 292.2 308.245 291.824C308.389 291.44 308.577 291.116 308.809 290.852C309.041 290.588 309.309 290.384 309.613 290.24C309.917 290.096 310.237 290.024 310.573 290.024C310.909 290.024 311.201 290.084 311.449 290.204C311.697 290.324 311.949 290.488 312.205 290.696L312.157 289.7V287.456H313.153V296H312.337L312.253 295.316H312.217C311.985 295.54 311.717 295.736 311.413 295.904C311.117 296.064 310.797 296.144 310.453 296.144ZM310.669 295.316C310.941 295.316 311.197 295.252 311.437 295.124C311.677 294.988 311.917 294.784 312.157 294.512V291.464C311.909 291.24 311.669 291.084 311.437 290.996C311.213 290.9 310.981 290.852 310.741 290.852C310.509 290.852 310.289 290.908 310.081 291.02C309.881 291.124 309.705 291.276 309.553 291.476C309.401 291.668 309.281 291.9 309.193 292.172C309.105 292.444 309.061 292.748 309.061 293.084C309.061 293.788 309.201 294.336 309.481 294.728C309.761 295.12 310.157 295.316 310.669 295.316ZM317.385 296.144C317.025 296.144 316.681 296.076 316.353 295.94C316.033 295.804 315.749 295.608 315.501 295.352C315.253 295.088 315.053 294.768 314.901 294.392C314.757 294.008 314.685 293.576 314.685 293.096C314.685 292.608 314.757 292.176 314.901 291.8C315.053 291.416 315.253 291.092 315.501 290.828C315.749 290.564 316.033 290.364 316.353 290.228C316.681 290.092 317.025 290.024 317.385 290.024C317.745 290.024 318.085 290.092 318.405 290.228C318.733 290.364 319.021 290.564 319.269 290.828C319.517 291.092 319.713 291.416 319.857 291.8C320.009 292.176 320.085 292.608 320.085 293.096C320.085 293.576 320.009 294.008 319.857 294.392C319.713 294.768 319.517 295.088 319.269 295.352C319.021 295.608 318.733 295.804 318.405 295.94C318.085 296.076 317.745 296.144 317.385 296.144ZM317.385 295.328C317.633 295.328 317.861 295.276 318.069 295.172C318.277 295.06 318.453 294.908 318.597 294.716C318.749 294.516 318.865 294.28 318.945 294.008C319.025 293.736 319.065 293.432 319.065 293.096C319.065 292.76 319.025 292.456 318.945 292.184C318.865 291.904 318.749 291.664 318.597 291.464C318.453 291.264 318.277 291.112 318.069 291.008C317.861 290.896 317.633 290.84 317.385 290.84C317.137 290.84 316.909 290.896 316.701 291.008C316.493 291.112 316.313 291.264 316.161 291.464C316.017 291.664 315.905 291.904 315.825 292.184C315.745 292.456 315.705 292.76 315.705 293.096C315.705 293.432 315.745 293.736 315.825 294.008C315.905 294.28 316.017 294.516 316.161 294.716C316.313 294.908 316.493 295.06 316.701 295.172C316.909 295.276 317.137 295.328 317.385 295.328Z" fill="#979797"/>
<path d="M249.105 329L246.322 314.004H249.795L250.83 321.019C250.922 321.801 251.022 322.591 251.129 323.388C251.236 324.17 251.336 324.96 251.428 325.757H251.52C251.673 324.96 251.819 324.17 251.957 323.388C252.11 322.591 252.264 321.801 252.417 321.019L254.027 314.004H256.902L258.512 321.019C258.665 321.786 258.811 322.568 258.949 323.365C259.102 324.147 259.256 324.944 259.409 325.757H259.501C259.608 324.944 259.708 324.147 259.8 323.365C259.907 322.583 260.015 321.801 260.122 321.019L261.157 314.004H264.4L261.732 329H257.477L256.005 322.192C255.882 321.609 255.767 321.027 255.66 320.444C255.568 319.846 255.484 319.271 255.407 318.719H255.315C255.223 319.271 255.123 319.846 255.016 320.444C254.924 321.027 254.817 321.609 254.694 322.192L253.291 329H249.105ZM266.205 329V317.592H269.586V329H266.205ZM267.884 315.913C267.317 315.913 266.849 315.752 266.481 315.43C266.113 315.093 265.929 314.663 265.929 314.142C265.929 313.621 266.113 313.199 266.481 312.877C266.849 312.555 267.317 312.394 267.884 312.394C268.467 312.394 268.934 312.555 269.287 312.877C269.655 313.199 269.839 313.621 269.839 314.142C269.839 314.663 269.655 315.093 269.287 315.43C268.934 315.752 268.467 315.913 267.884 315.913ZM275.666 329.276C275.084 329.276 274.593 329.184 274.194 329C273.796 328.816 273.474 328.563 273.228 328.241C272.998 327.904 272.83 327.505 272.722 327.045C272.615 326.57 272.561 326.041 272.561 325.458V312.877H275.942V325.596C275.942 325.949 276.004 326.194 276.126 326.332C276.264 326.47 276.402 326.539 276.54 326.539C276.617 326.539 276.678 326.539 276.724 326.539C276.786 326.539 276.862 326.524 276.954 326.493L277.368 329C277.184 329.077 276.947 329.138 276.655 329.184C276.379 329.245 276.05 329.276 275.666 329.276ZM282.247 329.276C281.665 329.276 281.174 329.184 280.775 329C280.377 328.816 280.055 328.563 279.809 328.241C279.579 327.904 279.411 327.505 279.303 327.045C279.196 326.57 279.142 326.041 279.142 325.458V312.877H282.523V325.596C282.523 325.949 282.585 326.194 282.707 326.332C282.845 326.47 282.983 326.539 283.121 326.539C283.198 326.539 283.259 326.539 283.305 326.539C283.367 326.539 283.443 326.524 283.535 326.493L283.949 329C283.765 329.077 283.528 329.138 283.236 329.184C282.96 329.245 282.631 329.276 282.247 329.276ZM285.724 329V317.592H289.105V329H285.724ZM287.403 315.913C286.835 315.913 286.368 315.752 286 315.43C285.632 315.093 285.448 314.663 285.448 314.142C285.448 313.621 285.632 313.199 286 312.877C286.368 312.555 286.835 312.394 287.403 312.394C287.985 312.394 288.453 312.555 288.806 312.877C289.174 313.199 289.358 313.621 289.358 314.142C289.358 314.663 289.174 315.093 288.806 315.43C288.453 315.752 287.985 315.913 287.403 315.913ZM294.955 329.276C294.434 329.276 293.958 329.184 293.529 329C293.115 328.831 292.762 328.594 292.471 328.287C292.18 327.965 291.95 327.597 291.781 327.183C291.628 326.769 291.551 326.317 291.551 325.826C291.551 324.63 292.057 323.695 293.069 323.02C294.081 322.345 295.714 321.893 297.968 321.663C297.937 321.157 297.784 320.758 297.508 320.467C297.247 320.16 296.803 320.007 296.174 320.007C295.683 320.007 295.193 320.099 294.702 320.283C294.227 320.467 293.713 320.72 293.161 321.042L291.942 318.811C292.678 318.366 293.445 318.006 294.242 317.73C295.055 317.454 295.913 317.316 296.818 317.316C298.29 317.316 299.409 317.738 300.176 318.581C300.958 319.409 301.349 320.705 301.349 322.468V329H298.589L298.359 327.827H298.267C297.776 328.256 297.263 328.609 296.726 328.885C296.189 329.146 295.599 329.276 294.955 329.276ZM296.105 326.654C296.488 326.654 296.818 326.57 297.094 326.401C297.37 326.232 297.661 325.995 297.968 325.688V323.687C296.772 323.856 295.944 324.101 295.484 324.423C295.024 324.745 294.794 325.128 294.794 325.573C294.794 325.941 294.909 326.217 295.139 326.401C295.384 326.57 295.706 326.654 296.105 326.654ZM304.209 329V317.592H306.969L307.199 319.041H307.291C307.782 318.581 308.318 318.182 308.901 317.845C309.484 317.492 310.166 317.316 310.948 317.316C312.19 317.316 313.087 317.722 313.639 318.535C314.206 319.348 314.49 320.475 314.49 321.916V329H311.109V322.353C311.109 321.525 310.994 320.958 310.764 320.651C310.549 320.344 310.197 320.191 309.706 320.191C309.277 320.191 308.909 320.291 308.602 320.49C308.295 320.674 307.958 320.942 307.59 321.295V329H304.209ZM322.251 329V314.004H326.483C327.633 314.004 328.668 314.15 329.588 314.441C330.508 314.732 331.298 315.185 331.957 315.798C332.617 316.396 333.123 317.163 333.475 318.098C333.828 319.033 334.004 320.145 334.004 321.433C334.004 322.721 333.828 323.84 333.475 324.791C333.123 325.742 332.624 326.531 331.98 327.16C331.336 327.773 330.562 328.233 329.657 328.54C328.768 328.847 327.771 329 326.667 329H322.251ZM325.632 326.263H326.276C326.92 326.263 327.503 326.179 328.024 326.01C328.546 325.841 328.99 325.573 329.358 325.205C329.726 324.822 330.01 324.323 330.209 323.71C330.424 323.097 330.531 322.338 330.531 321.433C330.531 320.544 330.424 319.8 330.209 319.202C330.01 318.589 329.726 318.106 329.358 317.753C328.99 317.385 328.546 317.124 328.024 316.971C327.503 316.818 326.92 316.741 326.276 316.741H325.632V326.263ZM338.53 329.276C337.947 329.276 337.457 329.077 337.058 328.678C336.675 328.264 336.483 327.758 336.483 327.16C336.483 326.547 336.675 326.041 337.058 325.642C337.457 325.228 337.947 325.021 338.53 325.021C339.113 325.021 339.596 325.228 339.979 325.642C340.378 326.041 340.577 326.547 340.577 327.16C340.577 327.758 340.378 328.264 339.979 328.678C339.596 329.077 339.113 329.276 338.53 329.276Z" fill="#979797"/>
<path d="M214.08 453V445.128H215.112L217.956 450.072L218.808 451.704H218.856C218.832 451.304 218.804 450.892 218.772 450.468C218.748 450.036 218.736 449.612 218.736 449.196V445.128H219.684V453H218.652L215.796 448.044L214.944 446.424H214.896C214.928 446.824 214.956 447.232 214.98 447.648C215.012 448.056 215.028 448.468 215.028 448.884V453H214.08ZM223.098 453.144C222.61 453.144 222.202 453 221.874 452.712C221.554 452.424 221.394 452.016 221.394 451.488C221.394 450.848 221.678 450.36 222.246 450.024C222.814 449.68 223.722 449.44 224.97 449.304C224.97 449.12 224.95 448.94 224.91 448.764C224.878 448.588 224.818 448.432 224.73 448.296C224.642 448.16 224.518 448.052 224.358 447.972C224.206 447.884 224.01 447.84 223.77 447.84C223.434 447.84 223.118 447.904 222.822 448.032C222.526 448.16 222.262 448.304 222.03 448.464L221.646 447.78C221.918 447.604 222.25 447.436 222.642 447.276C223.034 447.108 223.466 447.024 223.938 447.024C224.65 447.024 225.166 447.244 225.486 447.684C225.806 448.116 225.966 448.696 225.966 449.424V453H225.15L225.066 452.304H225.03C224.75 452.536 224.45 452.736 224.13 452.904C223.81 453.064 223.466 453.144 223.098 453.144ZM223.386 452.352C223.666 452.352 223.93 452.288 224.178 452.16C224.426 452.024 224.69 451.828 224.97 451.572V449.952C224.482 450.016 224.07 450.092 223.734 450.18C223.406 450.268 223.138 450.372 222.93 450.492C222.73 450.612 222.582 450.752 222.486 450.912C222.398 451.064 222.354 451.232 222.354 451.416C222.354 451.752 222.454 451.992 222.654 452.136C222.854 452.28 223.098 452.352 223.386 452.352ZM224.778 446.076C224.562 446.076 224.378 446.024 224.226 445.92C224.074 445.816 223.934 445.7 223.806 445.572C223.678 445.444 223.554 445.328 223.434 445.224C223.322 445.12 223.198 445.068 223.062 445.068C222.878 445.068 222.742 445.156 222.654 445.332C222.566 445.508 222.514 445.736 222.498 446.016L221.838 445.98C221.846 445.748 221.874 445.532 221.922 445.332C221.978 445.132 222.054 444.96 222.15 444.816C222.246 444.672 222.366 444.56 222.51 444.48C222.662 444.392 222.842 444.348 223.05 444.348C223.266 444.348 223.45 444.4 223.602 444.504C223.754 444.608 223.894 444.724 224.022 444.852C224.15 444.98 224.27 445.096 224.382 445.2C224.502 445.304 224.634 445.356 224.778 445.356C224.954 445.356 225.086 445.268 225.174 445.092C225.262 444.916 225.314 444.688 225.33 444.408L225.99 444.456C225.982 444.688 225.95 444.904 225.894 445.104C225.846 445.296 225.774 445.464 225.678 445.608C225.582 445.752 225.458 445.868 225.306 445.956C225.162 446.036 224.986 446.076 224.778 446.076ZM230.068 453.144C229.708 453.144 229.364 453.076 229.036 452.94C228.716 452.804 228.432 452.608 228.184 452.352C227.936 452.088 227.736 451.768 227.584 451.392C227.44 451.008 227.368 450.576 227.368 450.096C227.368 449.608 227.44 449.176 227.584 448.8C227.736 448.416 227.936 448.092 228.184 447.828C228.432 447.564 228.716 447.364 229.036 447.228C229.364 447.092 229.708 447.024 230.068 447.024C230.428 447.024 230.768 447.092 231.088 447.228C231.416 447.364 231.704 447.564 231.952 447.828C232.2 448.092 232.396 448.416 232.54 448.8C232.692 449.176 232.768 449.608 232.768 450.096C232.768 450.576 232.692 451.008 232.54 451.392C232.396 451.768 232.2 452.088 231.952 452.352C231.704 452.608 231.416 452.804 231.088 452.94C230.768 453.076 230.428 453.144 230.068 453.144ZM230.068 452.328C230.316 452.328 230.544 452.276 230.752 452.172C230.96 452.06 231.136 451.908 231.28 451.716C231.432 451.516 231.548 451.28 231.628 451.008C231.708 450.736 231.748 450.432 231.748 450.096C231.748 449.76 231.708 449.456 231.628 449.184C231.548 448.904 231.432 448.664 231.28 448.464C231.136 448.264 230.96 448.112 230.752 448.008C230.544 447.896 230.316 447.84 230.068 447.84C229.82 447.84 229.592 447.896 229.384 448.008C229.176 448.112 228.996 448.264 228.844 448.464C228.7 448.664 228.588 448.904 228.508 449.184C228.428 449.456 228.388 449.76 228.388 450.096C228.388 450.432 228.428 450.736 228.508 451.008C228.588 451.28 228.7 451.516 228.844 451.716C228.996 451.908 229.176 452.06 229.384 452.172C229.592 452.276 229.82 452.328 230.068 452.328ZM238.543 453.144C238.231 453.144 237.967 453.096 237.751 453C237.543 452.904 237.371 452.772 237.235 452.604C237.107 452.436 237.015 452.232 236.959 451.992C236.903 451.752 236.875 451.488 236.875 451.2V447.972H236.011V447.228L236.923 447.168L237.043 445.536H237.871V447.168H239.443V447.972H237.871V451.212C237.871 451.572 237.935 451.852 238.063 452.052C238.199 452.244 238.435 452.34 238.771 452.34C238.875 452.34 238.987 452.324 239.107 452.292C239.227 452.26 239.335 452.224 239.431 452.184L239.623 452.928C239.463 452.984 239.287 453.032 239.095 453.072C238.911 453.12 238.727 453.144 238.543 453.144ZM242.961 453.144C242.569 453.144 242.201 453.076 241.857 452.94C241.521 452.796 241.225 452.596 240.969 452.34C240.721 452.076 240.525 451.756 240.381 451.38C240.237 451.004 240.165 450.576 240.165 450.096C240.165 449.616 240.237 449.188 240.381 448.812C240.533 448.428 240.729 448.104 240.969 447.84C241.217 447.576 241.497 447.376 241.809 447.24C242.121 447.096 242.445 447.024 242.781 447.024C243.149 447.024 243.477 447.088 243.765 447.216C244.061 447.344 244.305 447.528 244.497 447.768C244.697 448.008 244.849 448.296 244.953 448.632C245.057 448.968 245.109 449.344 245.109 449.76C245.109 449.864 245.105 449.968 245.097 450.072C245.097 450.168 245.089 450.252 245.073 450.324H241.137C241.177 450.948 241.369 451.444 241.713 451.812C242.065 452.172 242.521 452.352 243.081 452.352C243.361 452.352 243.617 452.312 243.849 452.232C244.089 452.144 244.317 452.032 244.533 451.896L244.881 452.544C244.625 452.704 244.341 452.844 244.029 452.964C243.717 453.084 243.361 453.144 242.961 453.144ZM241.125 449.616H244.245C244.245 449.024 244.117 448.576 243.861 448.272C243.613 447.96 243.261 447.804 242.805 447.804C242.597 447.804 242.397 447.844 242.205 447.924C242.021 448.004 241.853 448.124 241.701 448.284C241.549 448.436 241.421 448.624 241.317 448.848C241.221 449.072 241.157 449.328 241.125 449.616ZM246.55 453V447.168H247.366L247.45 448.008H247.486C247.766 447.728 248.058 447.496 248.362 447.312C248.674 447.12 249.034 447.024 249.442 447.024C250.058 447.024 250.506 447.216 250.786 447.6C251.074 447.984 251.218 448.552 251.218 449.304V453H250.234V449.436C250.234 448.884 250.146 448.488 249.97 448.248C249.794 448 249.514 447.876 249.13 447.876C248.826 447.876 248.558 447.952 248.326 448.104C248.094 448.256 247.83 448.48 247.534 448.776V453H246.55ZM253.113 453V444.456H254.097V446.784L254.061 447.984C254.341 447.72 254.633 447.496 254.937 447.312C255.241 447.12 255.597 447.024 256.005 447.024C256.621 447.024 257.069 447.216 257.349 447.6C257.637 447.984 257.781 448.552 257.781 449.304V453H256.797V449.436C256.797 448.884 256.709 448.488 256.533 448.248C256.357 448 256.077 447.876 255.693 447.876C255.389 447.876 255.121 447.952 254.889 448.104C254.657 448.256 254.393 448.48 254.097 448.776V453H253.113ZM261.908 453.144C261.548 453.144 261.204 453.076 260.876 452.94C260.556 452.804 260.272 452.608 260.024 452.352C259.776 452.088 259.576 451.768 259.424 451.392C259.28 451.008 259.208 450.576 259.208 450.096C259.208 449.608 259.28 449.176 259.424 448.8C259.576 448.416 259.776 448.092 260.024 447.828C260.272 447.564 260.556 447.364 260.876 447.228C261.204 447.092 261.548 447.024 261.908 447.024C262.268 447.024 262.608 447.092 262.928 447.228C263.256 447.364 263.544 447.564 263.792 447.828C264.04 448.092 264.236 448.416 264.38 448.8C264.532 449.176 264.608 449.608 264.608 450.096C264.608 450.576 264.532 451.008 264.38 451.392C264.236 451.768 264.04 452.088 263.792 452.352C263.544 452.608 263.256 452.804 262.928 452.94C262.608 453.076 262.268 453.144 261.908 453.144ZM261.908 452.328C262.156 452.328 262.384 452.276 262.592 452.172C262.8 452.06 262.976 451.908 263.12 451.716C263.272 451.516 263.388 451.28 263.468 451.008C263.548 450.736 263.588 450.432 263.588 450.096C263.588 449.76 263.548 449.456 263.468 449.184C263.388 448.904 263.272 448.664 263.12 448.464C262.976 448.264 262.8 448.112 262.592 448.008C262.384 447.896 262.156 447.84 261.908 447.84C261.66 447.84 261.432 447.896 261.224 448.008C261.016 448.112 260.836 448.264 260.684 448.464C260.54 448.664 260.428 448.904 260.348 449.184C260.268 449.456 260.228 449.76 260.228 450.096C260.228 450.432 260.268 450.736 260.348 451.008C260.428 451.28 260.54 451.516 260.684 451.716C260.836 451.908 261.016 452.06 261.224 452.172C261.432 452.276 261.66 452.328 261.908 452.328ZM270.251 453.144C269.627 453.144 269.171 452.952 268.883 452.568C268.603 452.184 268.463 451.616 268.463 450.864V447.168H269.459V450.732C269.459 451.284 269.543 451.684 269.711 451.932C269.887 452.172 270.167 452.292 270.551 452.292C270.855 452.292 271.123 452.216 271.355 452.064C271.587 451.904 271.843 451.652 272.123 451.308V447.168H273.107V453H272.291L272.207 452.088H272.171C271.899 452.408 271.611 452.664 271.307 452.856C271.011 453.048 270.659 453.144 270.251 453.144ZM275.074 453V447.168H275.89L275.974 448.008H276.01C276.266 447.728 276.542 447.496 276.838 447.312C277.142 447.12 277.47 447.024 277.822 447.024C278.27 447.024 278.618 447.124 278.866 447.324C279.122 447.516 279.31 447.788 279.43 448.14C279.734 447.804 280.038 447.536 280.342 447.336C280.654 447.128 280.99 447.024 281.35 447.024C281.95 447.024 282.394 447.216 282.682 447.6C282.978 447.984 283.126 448.552 283.126 449.304V453H282.142V449.436C282.142 448.884 282.054 448.488 281.878 448.248C281.702 448 281.43 447.876 281.062 447.876C280.622 447.876 280.134 448.176 279.598 448.776V453H278.614V449.436C278.614 448.884 278.526 448.488 278.35 448.248C278.174 448 277.898 447.876 277.522 447.876C277.082 447.876 276.594 448.176 276.058 448.776V453H275.074ZM286.367 453.144C285.879 453.144 285.471 453 285.143 452.712C284.823 452.424 284.663 452.016 284.663 451.488C284.663 450.848 284.947 450.36 285.515 450.024C286.083 449.68 286.991 449.44 288.239 449.304C288.239 449.12 288.219 448.94 288.179 448.764C288.147 448.588 288.087 448.432 287.999 448.296C287.911 448.16 287.787 448.052 287.627 447.972C287.475 447.884 287.279 447.84 287.039 447.84C286.703 447.84 286.387 447.904 286.091 448.032C285.795 448.16 285.531 448.304 285.299 448.464L284.915 447.78C285.187 447.604 285.519 447.436 285.911 447.276C286.303 447.108 286.735 447.024 287.207 447.024C287.919 447.024 288.435 447.244 288.755 447.684C289.075 448.116 289.235 448.696 289.235 449.424V453H288.419L288.335 452.304H288.299C288.019 452.536 287.719 452.736 287.399 452.904C287.079 453.064 286.735 453.144 286.367 453.144ZM286.655 452.352C286.935 452.352 287.199 452.288 287.447 452.16C287.695 452.024 287.959 451.828 288.239 451.572V449.952C287.751 450.016 287.339 450.092 287.003 450.18C286.675 450.268 286.407 450.372 286.199 450.492C285.999 450.612 285.851 450.752 285.755 450.912C285.667 451.064 285.623 451.232 285.623 451.416C285.623 451.752 285.723 451.992 285.923 452.136C286.123 452.28 286.367 452.352 286.655 452.352ZM295.776 453.144C295.392 453.144 295.032 453.076 294.696 452.94C294.36 452.804 294.068 452.608 293.82 452.352C293.58 452.088 293.388 451.768 293.244 451.392C293.108 451.008 293.04 450.576 293.04 450.096C293.04 449.608 293.116 449.176 293.268 448.8C293.42 448.416 293.624 448.092 293.88 447.828C294.136 447.564 294.432 447.364 294.768 447.228C295.112 447.092 295.472 447.024 295.848 447.024C296.232 447.024 296.56 447.092 296.832 447.228C297.104 447.364 297.344 447.524 297.552 447.708L297.048 448.356C296.88 448.204 296.7 448.08 296.508 447.984C296.324 447.888 296.116 447.84 295.884 447.84C295.62 447.84 295.376 447.896 295.152 448.008C294.928 448.112 294.736 448.264 294.576 448.464C294.416 448.664 294.288 448.904 294.192 449.184C294.104 449.456 294.06 449.76 294.06 450.096C294.06 450.432 294.104 450.736 294.192 451.008C294.28 451.28 294.4 451.516 294.552 451.716C294.712 451.908 294.904 452.06 295.128 452.172C295.352 452.276 295.596 452.328 295.86 452.328C296.132 452.328 296.38 452.272 296.604 452.16C296.836 452.04 297.044 451.9 297.228 451.74L297.66 452.4C297.396 452.632 297.104 452.816 296.784 452.952C296.464 453.08 296.128 453.144 295.776 453.144ZM300.955 453.144C300.595 453.144 300.251 453.076 299.923 452.94C299.603 452.804 299.319 452.608 299.071 452.352C298.823 452.088 298.623 451.768 298.471 451.392C298.327 451.008 298.255 450.576 298.255 450.096C298.255 449.608 298.327 449.176 298.471 448.8C298.623 448.416 298.823 448.092 299.071 447.828C299.319 447.564 299.603 447.364 299.923 447.228C300.251 447.092 300.595 447.024 300.955 447.024C301.315 447.024 301.655 447.092 301.975 447.228C302.303 447.364 302.591 447.564 302.839 447.828C303.087 448.092 303.283 448.416 303.427 448.8C303.579 449.176 303.655 449.608 303.655 450.096C303.655 450.576 303.579 451.008 303.427 451.392C303.283 451.768 303.087 452.088 302.839 452.352C302.591 452.608 302.303 452.804 301.975 452.94C301.655 453.076 301.315 453.144 300.955 453.144ZM300.955 452.328C301.203 452.328 301.431 452.276 301.639 452.172C301.847 452.06 302.023 451.908 302.167 451.716C302.319 451.516 302.435 451.28 302.515 451.008C302.595 450.736 302.635 450.432 302.635 450.096C302.635 449.76 302.595 449.456 302.515 449.184C302.435 448.904 302.319 448.664 302.167 448.464C302.023 448.264 301.847 448.112 301.639 448.008C301.431 447.896 301.203 447.84 300.955 447.84C300.707 447.84 300.479 447.896 300.271 448.008C300.063 448.112 299.883 448.264 299.731 448.464C299.587 448.664 299.475 448.904 299.395 449.184C299.315 449.456 299.275 449.76 299.275 450.096C299.275 450.432 299.315 450.736 299.395 451.008C299.475 451.28 299.587 451.516 299.731 451.716C299.883 451.908 300.063 452.06 300.271 452.172C300.479 452.276 300.707 452.328 300.955 452.328ZM305.191 453V447.168H306.007L306.091 448.008H306.127C306.407 447.728 306.699 447.496 307.003 447.312C307.315 447.12 307.675 447.024 308.083 447.024C308.699 447.024 309.147 447.216 309.427 447.6C309.715 447.984 309.859 448.552 309.859 449.304V453H308.875V449.436C308.875 448.884 308.787 448.488 308.611 448.248C308.435 448 308.155 447.876 307.771 447.876C307.467 447.876 307.199 447.952 306.967 448.104C306.735 448.256 306.471 448.48 306.175 448.776V453H305.191ZM313.59 453.144C313.278 453.144 313.014 453.096 312.798 453C312.59 452.904 312.418 452.772 312.282 452.604C312.154 452.436 312.062 452.232 312.006 451.992C311.95 451.752 311.922 451.488 311.922 451.2V447.972H311.058V447.228L311.97 447.168L312.09 445.536H312.918V447.168H314.49V447.972H312.918V451.212C312.918 451.572 312.982 451.852 313.11 452.052C313.246 452.244 313.482 452.34 313.818 452.34C313.922 452.34 314.034 452.324 314.154 452.292C314.274 452.26 314.382 452.224 314.478 452.184L314.67 452.928C314.51 452.984 314.334 453.032 314.142 453.072C313.958 453.12 313.774 453.144 313.59 453.144ZM316.894 453.144C316.406 453.144 315.998 453 315.67 452.712C315.35 452.424 315.19 452.016 315.19 451.488C315.19 450.848 315.474 450.36 316.042 450.024C316.61 449.68 317.518 449.44 318.766 449.304C318.766 449.12 318.746 448.94 318.706 448.764C318.674 448.588 318.614 448.432 318.526 448.296C318.438 448.16 318.314 448.052 318.154 447.972C318.002 447.884 317.806 447.84 317.566 447.84C317.23 447.84 316.914 447.904 316.618 448.032C316.322 448.16 316.058 448.304 315.826 448.464L315.442 447.78C315.714 447.604 316.046 447.436 316.438 447.276C316.83 447.108 317.262 447.024 317.734 447.024C318.446 447.024 318.962 447.244 319.282 447.684C319.602 448.116 319.762 448.696 319.762 449.424V453H318.946L318.862 452.304H318.826C318.546 452.536 318.246 452.736 317.926 452.904C317.606 453.064 317.262 453.144 316.894 453.144ZM317.182 452.352C317.462 452.352 317.726 452.288 317.974 452.16C318.222 452.024 318.486 451.828 318.766 451.572V449.952C318.278 450.016 317.866 450.092 317.53 450.18C317.202 450.268 316.934 450.372 316.726 450.492C316.526 450.612 316.378 450.752 316.282 450.912C316.194 451.064 316.15 451.232 316.15 451.416C316.15 451.752 316.25 451.992 316.45 452.136C316.65 452.28 316.894 452.352 317.182 452.352ZM321.417 455.04L321.177 454.464C321.521 454.312 321.789 454.108 321.981 453.852C322.173 453.604 322.265 453.32 322.257 453C322.233 453.008 322.193 453.012 322.137 453.012C321.945 453.012 321.777 452.956 321.633 452.844C321.497 452.724 321.429 452.552 321.429 452.328C321.429 452.112 321.501 451.944 321.645 451.824C321.789 451.696 321.961 451.632 322.161 451.632C322.417 451.632 322.617 451.736 322.761 451.944C322.913 452.152 322.989 452.436 322.989 452.796C322.989 453.316 322.849 453.768 322.569 454.152C322.289 454.536 321.905 454.832 321.417 455.04Z" fill="#979797"/>
<path d="M329.376 453.144C328.96 453.144 328.572 453.076 328.212 452.94C327.86 452.796 327.552 452.592 327.288 452.328C327.024 452.064 326.816 451.74 326.664 451.356C326.512 450.964 326.436 450.52 326.436 450.024C326.436 449.528 326.52 449.088 326.688 448.704C326.856 448.312 327.08 447.984 327.36 447.72C327.648 447.456 327.98 447.256 328.356 447.12C328.732 446.976 329.124 446.904 329.532 446.904C329.9 446.904 330.224 446.964 330.504 447.084C330.792 447.204 331.048 447.356 331.272 447.54L330.444 448.68C330.164 448.448 329.896 448.332 329.64 448.332C329.208 448.332 328.868 448.484 328.62 448.788C328.372 449.092 328.248 449.504 328.248 450.024C328.248 450.544 328.372 450.956 328.62 451.26C328.876 451.564 329.196 451.716 329.58 451.716C329.772 451.716 329.956 451.676 330.132 451.596C330.316 451.508 330.488 451.404 330.648 451.284L331.344 452.436C331.048 452.692 330.728 452.876 330.384 452.988C330.04 453.092 329.704 453.144 329.376 453.144ZM333.768 453.144C333.496 453.144 333.248 453.096 333.024 453C332.808 452.912 332.624 452.788 332.472 452.628C332.32 452.46 332.2 452.268 332.112 452.052C332.032 451.836 331.992 451.6 331.992 451.344C331.992 450.72 332.256 450.232 332.784 449.88C333.312 449.528 334.164 449.292 335.34 449.172C335.324 448.908 335.244 448.7 335.1 448.548C334.964 448.388 334.732 448.308 334.404 448.308C334.148 448.308 333.892 448.356 333.636 448.452C333.388 448.548 333.12 448.68 332.832 448.848L332.196 447.684C332.58 447.452 332.98 447.264 333.396 447.12C333.82 446.976 334.268 446.904 334.74 446.904C335.508 446.904 336.092 447.124 336.492 447.564C336.9 447.996 337.104 448.672 337.104 449.592V453H335.664L335.544 452.388H335.496C335.24 452.612 334.972 452.796 334.692 452.94C334.412 453.076 334.104 453.144 333.768 453.144ZM334.368 451.776C334.568 451.776 334.74 451.732 334.884 451.644C335.028 451.556 335.18 451.432 335.34 451.272V450.228C334.716 450.316 334.284 450.444 334.044 450.612C333.804 450.78 333.684 450.98 333.684 451.212C333.684 451.404 333.744 451.548 333.864 451.644C333.992 451.732 334.16 451.776 334.368 451.776ZM340.72 453.144C340.352 453.144 340.016 453.072 339.712 452.928C339.416 452.784 339.16 452.58 338.944 452.316C338.736 452.044 338.572 451.716 338.452 451.332C338.34 450.948 338.284 450.512 338.284 450.024C338.284 449.536 338.352 449.1 338.488 448.716C338.632 448.332 338.816 448.008 339.04 447.744C339.272 447.472 339.536 447.264 339.832 447.12C340.136 446.976 340.444 446.904 340.756 446.904C341.092 446.904 341.368 446.96 341.584 447.072C341.8 447.184 342.012 447.336 342.22 447.528L342.148 446.616V444.588H343.912V453H342.472L342.352 452.412H342.304C342.096 452.62 341.852 452.796 341.572 452.94C341.292 453.076 341.008 453.144 340.72 453.144ZM341.176 451.704C341.368 451.704 341.54 451.664 341.692 451.584C341.852 451.504 342.004 451.364 342.148 451.164V448.728C341.988 448.584 341.824 448.484 341.656 448.428C341.488 448.372 341.324 448.344 341.164 448.344C340.884 448.344 340.636 448.48 340.42 448.752C340.204 449.016 340.096 449.432 340.096 450C340.096 450.592 340.188 451.024 340.372 451.296C340.564 451.568 340.832 451.704 341.176 451.704ZM346.975 453.144C346.703 453.144 346.455 453.096 346.231 453C346.015 452.912 345.831 452.788 345.679 452.628C345.527 452.46 345.407 452.268 345.319 452.052C345.239 451.836 345.199 451.6 345.199 451.344C345.199 450.72 345.463 450.232 345.991 449.88C346.519 449.528 347.371 449.292 348.547 449.172C348.531 448.908 348.451 448.7 348.307 448.548C348.171 448.388 347.939 448.308 347.611 448.308C347.355 448.308 347.099 448.356 346.843 448.452C346.595 448.548 346.327 448.68 346.039 448.848L345.403 447.684C345.787 447.452 346.187 447.264 346.603 447.12C347.027 446.976 347.475 446.904 347.947 446.904C348.715 446.904 349.299 447.124 349.699 447.564C350.107 447.996 350.311 448.672 350.311 449.592V453H348.871L348.751 452.388H348.703C348.447 452.612 348.179 452.796 347.899 452.94C347.619 453.076 347.311 453.144 346.975 453.144ZM347.575 451.776C347.775 451.776 347.947 451.732 348.091 451.644C348.235 451.556 348.387 451.432 348.547 451.272V450.228C347.923 450.316 347.491 450.444 347.251 450.612C347.011 450.78 346.891 450.98 346.891 451.212C346.891 451.404 346.951 451.548 347.071 451.644C347.199 451.732 347.367 451.776 347.575 451.776ZM353.555 453.144C353.163 453.144 352.759 453.068 352.343 452.916C351.935 452.764 351.579 452.564 351.275 452.316L352.067 451.212C352.339 451.42 352.599 451.576 352.847 451.68C353.095 451.784 353.347 451.836 353.603 451.836C353.867 451.836 354.059 451.792 354.179 451.704C354.299 451.616 354.359 451.492 354.359 451.332C354.359 451.236 354.323 451.152 354.251 451.08C354.187 451 354.095 450.928 353.975 450.864C353.863 450.8 353.735 450.744 353.591 450.696C353.447 450.64 353.299 450.58 353.147 450.516C352.963 450.444 352.779 450.36 352.595 450.264C352.411 450.168 352.243 450.052 352.091 449.916C351.939 449.772 351.815 449.608 351.719 449.424C351.623 449.232 351.575 449.012 351.575 448.764C351.575 448.492 351.627 448.24 351.731 448.008C351.843 447.776 351.999 447.58 352.199 447.42C352.399 447.26 352.639 447.136 352.919 447.048C353.199 446.952 353.511 446.904 353.855 446.904C354.311 446.904 354.711 446.984 355.055 447.144C355.399 447.296 355.699 447.468 355.955 447.66L355.163 448.716C354.947 448.556 354.735 448.432 354.527 448.344C354.319 448.256 354.111 448.212 353.903 448.212C353.455 448.212 353.231 448.368 353.231 448.68C353.231 448.776 353.263 448.86 353.327 448.932C353.391 448.996 353.475 449.056 353.579 449.112C353.691 449.168 353.815 449.224 353.951 449.28C354.095 449.328 354.243 449.38 354.395 449.436C354.587 449.508 354.775 449.592 354.959 449.688C355.151 449.776 355.323 449.888 355.475 450.024C355.635 450.16 355.763 450.328 355.859 450.528C355.955 450.72 356.003 450.952 356.003 451.224C356.003 451.496 355.951 451.748 355.847 451.98C355.743 452.212 355.587 452.416 355.379 452.592C355.171 452.76 354.915 452.896 354.611 453C354.307 453.096 353.955 453.144 353.555 453.144ZM359.181 453.144C358.813 453.144 358.497 453.088 358.233 452.976C357.977 452.864 357.765 452.708 357.597 452.508C357.437 452.308 357.317 452.068 357.237 451.788C357.165 451.5 357.129 451.184 357.129 450.84V448.428H356.313V447.12L357.225 447.048L357.429 445.464H358.893V447.048H360.321V448.428H358.893V450.816C358.893 451.152 358.961 451.396 359.097 451.548C359.241 451.692 359.429 451.764 359.661 451.764C359.757 451.764 359.853 451.752 359.949 451.728C360.053 451.704 360.145 451.676 360.225 451.644L360.501 452.928C360.341 452.976 360.153 453.024 359.937 453.072C359.721 453.12 359.469 453.144 359.181 453.144ZM361.483 453V447.048H362.923L363.043 448.092H363.091C363.307 447.684 363.567 447.384 363.871 447.192C364.175 447 364.479 446.904 364.783 446.904C364.951 446.904 365.087 446.916 365.191 446.94C365.303 446.956 365.403 446.984 365.491 447.024L365.203 448.548C365.091 448.516 364.987 448.492 364.891 448.476C364.795 448.46 364.683 448.452 364.555 448.452C364.331 448.452 364.095 448.532 363.847 448.692C363.607 448.852 363.407 449.136 363.247 449.544V453H361.483ZM367.425 453.144C367.153 453.144 366.905 453.096 366.681 453C366.465 452.912 366.281 452.788 366.129 452.628C365.977 452.46 365.857 452.268 365.769 452.052C365.689 451.836 365.649 451.6 365.649 451.344C365.649 450.72 365.913 450.232 366.441 449.88C366.969 449.528 367.821 449.292 368.997 449.172C368.981 448.908 368.901 448.7 368.757 448.548C368.621 448.388 368.389 448.308 368.061 448.308C367.805 448.308 367.549 448.356 367.293 448.452C367.045 448.548 366.777 448.68 366.489 448.848L365.853 447.684C366.237 447.452 366.637 447.264 367.053 447.12C367.477 446.976 367.925 446.904 368.397 446.904C369.165 446.904 369.749 447.124 370.149 447.564C370.557 447.996 370.761 448.672 370.761 449.592V453H369.321L369.201 452.388H369.153C368.897 452.612 368.629 452.796 368.349 452.94C368.069 453.076 367.761 453.144 367.425 453.144ZM368.025 451.776C368.225 451.776 368.397 451.732 368.541 451.644C368.685 451.556 368.837 451.432 368.997 451.272V450.228C368.373 450.316 367.941 450.444 367.701 450.612C367.461 450.78 367.341 450.98 367.341 451.212C367.341 451.404 367.401 451.548 367.521 451.644C367.649 451.732 367.817 451.776 368.025 451.776ZM372.253 453V447.048H373.693L373.813 448.092H373.861C374.077 447.684 374.337 447.384 374.641 447.192C374.945 447 375.249 446.904 375.553 446.904C375.721 446.904 375.857 446.916 375.961 446.94C376.073 446.956 376.173 446.984 376.261 447.024L375.973 448.548C375.861 448.516 375.757 448.492 375.661 448.476C375.565 448.46 375.453 448.452 375.325 448.452C375.101 448.452 374.865 448.532 374.617 448.692C374.377 448.852 374.177 449.136 374.017 449.544V453H372.253ZM376.43 450.588V449.34H379.382V450.588H376.43ZM382.43 453.144C382.038 453.144 381.634 453.068 381.218 452.916C380.81 452.764 380.454 452.564 380.15 452.316L380.942 451.212C381.214 451.42 381.474 451.576 381.722 451.68C381.97 451.784 382.222 451.836 382.478 451.836C382.742 451.836 382.934 451.792 383.054 451.704C383.174 451.616 383.234 451.492 383.234 451.332C383.234 451.236 383.198 451.152 383.126 451.08C383.062 451 382.97 450.928 382.85 450.864C382.738 450.8 382.61 450.744 382.466 450.696C382.322 450.64 382.174 450.58 382.022 450.516C381.838 450.444 381.654 450.36 381.47 450.264C381.286 450.168 381.118 450.052 380.966 449.916C380.814 449.772 380.69 449.608 380.594 449.424C380.498 449.232 380.45 449.012 380.45 448.764C380.45 448.492 380.502 448.24 380.606 448.008C380.718 447.776 380.874 447.58 381.074 447.42C381.274 447.26 381.514 447.136 381.794 447.048C382.074 446.952 382.386 446.904 382.73 446.904C383.186 446.904 383.586 446.984 383.93 447.144C384.274 447.296 384.574 447.468 384.83 447.66L384.038 448.716C383.822 448.556 383.61 448.432 383.402 448.344C383.194 448.256 382.986 448.212 382.778 448.212C382.33 448.212 382.106 448.368 382.106 448.68C382.106 448.776 382.138 448.86 382.202 448.932C382.266 448.996 382.35 449.056 382.454 449.112C382.566 449.168 382.69 449.224 382.826 449.28C382.97 449.328 383.118 449.38 383.27 449.436C383.462 449.508 383.65 449.592 383.834 449.688C384.026 449.776 384.198 449.888 384.35 450.024C384.51 450.16 384.638 450.328 384.734 450.528C384.83 450.72 384.878 450.952 384.878 451.224C384.878 451.496 384.826 451.748 384.722 451.98C384.618 452.212 384.462 452.416 384.254 452.592C384.046 452.76 383.79 452.896 383.486 453C383.182 453.096 382.83 453.144 382.43 453.144ZM388.663 453.144C388.239 453.144 387.843 453.076 387.475 452.94C387.107 452.796 386.787 452.592 386.515 452.328C386.243 452.056 386.031 451.728 385.879 451.344C385.727 450.96 385.651 450.52 385.651 450.024C385.651 449.544 385.731 449.112 385.891 448.728C386.051 448.336 386.259 448.008 386.515 447.744C386.779 447.472 387.079 447.264 387.415 447.12C387.751 446.976 388.099 446.904 388.459 446.904C388.883 446.904 389.251 446.976 389.563 447.12C389.883 447.264 390.147 447.464 390.355 447.72C390.571 447.976 390.731 448.28 390.835 448.632C390.939 448.976 390.991 449.352 390.991 449.76C390.991 449.92 390.983 450.072 390.967 450.216C390.951 450.36 390.935 450.468 390.919 450.54H387.355C387.435 450.972 387.611 451.292 387.883 451.5C388.163 451.7 388.503 451.8 388.903 451.8C389.327 451.8 389.755 451.668 390.187 451.404L390.775 452.472C390.471 452.68 390.131 452.844 389.755 452.964C389.387 453.084 389.023 453.144 388.663 453.144ZM387.343 449.376H389.491C389.491 449.04 389.415 448.768 389.263 448.56C389.111 448.352 388.855 448.248 388.495 448.248C388.215 448.248 387.967 448.34 387.751 448.524C387.543 448.708 387.407 448.992 387.343 449.376Z" fill="#079D4A"/>
<defs>
<filter id="filter0_d" x="110" y="26" width="367" height="495" filterUnits="userSpaceOnUse" color-interpolation-filters="sRGB">
<feFlood flood-opacity="0" result="BackgroundImageFix"/>
<feColorMatrix in="SourceAlpha" type="matrix" values="0 0 0 0 0 0 0 0 0 0 0 0 0 0 0 0 0 0 127 0"/>
<feOffset/>
<feGaussianBlur stdDeviation="10"/>
<feColorMatrix type="matrix" values="0 0 0 0 0 0 0 0 0 0 0 0 0 0 0 0 0 0 0.05 0"/>
<feBlend mode="normal" in2="BackgroundImageFix" result="effect1_dropShadow"/>
<feBlend mode="normal" in="SourceGraphic" in2="effect1_dropShadow" result="shape"/>
</filter>
<clipPath id="clip0">
<rect x="250" y="142" width="87" height="87" fill="white"/>
</clipPath>
</defs>
</svg>
